<?xml version="1.0" encoding="UTF-8"?>
<svg xmlns="http://www.w3.org/2000/svg" viewBox="0 0 86.93 116.19">
  <defs>
    <style>
      .cls-1 {
        mix-blend-mode: multiply;
        opacity: .2;
      }

      .cls-2 {
        isolation: isolate;
      }

      .cls-3 {
        fill: #d8d8d8;
      }

      .cls-4 {
        fill: #5f99d3;
      }

      .cls-5 {
        fill: #6bcad9;
      }

      .cls-6 {
        fill: #d86868;
      }

      .cls-7 {
        fill: #f8d967;
      }

      .cls-8 {
        fill: #6b6b6b;
      }

      .cls-9 {
        fill: #adadad;
      }
    </style>
  </defs>
  <g class="cls-2">
    <g id="Layer_2" data-name="Layer 2">
      <g id="objects">
        <g id="_06" data-name="06">
          <g>
            <g>
              <path class="cls-9" d="M85.33,88.83c.91-5.07.79-10.42-.1-15.48-.88-4.97-1.27-9.94-1.88-14.93-.31-2.52-.27-5.09-.79-7.58-.37-1.78-.54-4.17-1.32-5.92.02-.53.02-1.06.03-1.61.02-3.66-.22-7.35-.47-11-.1-1.4-.24-2.79-.4-4.19.11-2.59-.2-5.23-.48-7.92-.33-3.2-.4-7.05-2.03-9.98.07-.33.13-.67.18-1.03.34-2.76-.21-5.51-2.25-7.51-1.86-1.82-4.48-1.5-6.22-.15-.62.01-1.25.03-1.91-.01-1.84-.11-3.35-.17-5.02.28-2.41-.62-4.57-.26-7.02.18-2.14.38-4.21.59-6.33,1.11-1.95.48-2.9.55-4.67.74-2.38.26-4.63.92-6.98,1.35-.08.01-.16.03-.25.04-2.3-.18-5.45-.25-7.97.23-2.53.49-5.21,1.06-7.67,1.81-.41.13-.84.29-1.26.48-.33.05-.66.1-.99.15-1.05.15-1.99.36-3.06.36-.5,0-1.13-.14-1.62,0-.12.04-.2.07-.25.09-2.42-.33-4.55.7-5.94,2.76-.99,1.47-.96,3.44-1.06,4.93-.11.4-.13.81-.07,1.22.03.28.06.52.08.73-.1,1-.25,2.37-.24,2.74.07,3.84-.8,6.87.24,11.06.91,3.67,1.5,7.41,2.35,11.1.39,1.7.74,3.74,1.37,5.63.17,2.11.35,4.21.48,6.32.23,3.67.4,7.35.82,11,.11.94.24,1.87.36,2.8-.07.27-.1.57-.07.91.34,4.42.28,8.94.24,13.36-.04,4.94.77,10.27,1.49,15,.53,3.51,1.16,7.64,3,10.89-.11,2.04,1.15,4.48,3.37,4.84.09.01.15.02.21.02.36.29,1.24.88,1.15.82.77.5,1.58.8,2.44.98.33.09.67.15,1.01.16.07,0,.13.02.2.02,0,0,0-.02,0-.03.59,0,1.21-.12,1.83-.38.4-.17.75-.38,1.06-.61.54.05,1.09.06,1.64,0,.45-.04.9-.1,1.34-.21.23.09.46.17.7.24,2.36.72,4.18.57,6.55.33,1.45-.15,2.96.02,4.4-.32.08-.02.15-.04.2-.05.12.01.27.03.44.05.89.08,1.62.02,2.51-.13,2.75-.45,5.49-1,8.22-1.58,2.58-.55,4.91-1.7,7.42-2.39,2-.55,4.02-1.38,5.97-2.26.19.01.38,0,.59-.05.66-.15,1.34.15,2.04-.02.7-.17,1.38-.65,1.98-1.03,1.47-.91,3.06-2.02,4.34-3.19.88-.81,1.53-1.72,1.94-2.69,1.56-.68,2.9-2.45,3.78-3.72,1.28-1.86,2.42-4.33,1.79-6.46,0-.1,0-.2,0-.3.22-.68.4-1.36.52-2.02ZM56.52,48.14c-1.21-1.04-2.66-1.68-4.44-1.68-2.11,0-4.64,1.11-5.79,3.01-1.55-1.16-3.48-1.7-5.55-.91-1.63.62-2.89,1.6-3.85,2.8-1.54-.72-3.44-.79-5.8.08-1.57.58-2.69,1.63-3.51,2.92-.54-.72-1.18-1.34-1.74-2.04-.15-.99-.31-1.97-.48-2.95-.23-2.51-.38-5.03-.06-7.46.25-1.89-.9-3.05-2.37-3.42-.39-2.6-1.13-5.12-2.7-7.2-.05-.31-.1-.63-.15-.94-.09-.54-.15-1.4-.34-1.91-.43-1.15-.26,0-.34-.75-.11-1.01.3-2.17.27-3.25-.03.05-.31-1.89-.37-2.29-.03-.4-.11-1.72-.17-2.44.02-.07.03-.16.05-.27,2.1-.23,4.23-.51,6.3-.84,3.71-.6,8.24-1.08,12.32-1.69,2.2-.33,4.41-.69,6.57-1.19.2-.05.55-.14.57-.16.31-.04.63-.06.94-.08,1.23-.06,2.4-.18,3.61-.43,4-.83,8.23-1.93,12.17-1.78.98.04,1.83-.14,2.55-.48-.08.82-.11,1.65-.08,2.49.08,2.39.66,4.67.96,7.03.04.28.09.6.17.93,0,1.57-.02,3.13.02,4.7.15,5.98.12,11.97.21,17.95,0,0-.02-.01-.02-.02-.1-.04-.19-.08-.28-.12-1.67-1.64-4.22-.94-5.18.98-.02.01-.04.02-.06.03.11-.37,0-.22-.15.09-.57.35-1.08.79-1.51,1.3-.03,0-.06-.01-.09-.01-.52-.06-1.09-.06-1.67,0Z"/>
              <path class="cls-9" d="M19.67,24.28c0,.05,0,.1,0,.16,0,0,0-.05,0-.16Z"/>
            </g>
            <path class="cls-8" d="M19.04,110.37c.09-.23.1-.49,0-.76-.1-.27-.21-.55-.31-.82-.16-.65-.35-1.31-.58-1.96.2-2.18.02-4.39-.18-6.57-.16-1.72-.34-3.54-.68-5.3.06-.22.1-.45.09-.71-.07-1.81-.6-3.61-.77-5.43-.21-2.32-.58-4.63-.91-6.94-.23-1.61-.51-3.25-.79-4.91-.35-3.43-.93-6.91-1-10.32-.02-.9-.39-1.56-.93-1.99-.23-1.85-.46-3.7-.67-5.56-.58-5.23-.96-10.49-1.52-15.72-.08-.75-.43-1.32-.9-1.71-.05-.4-.1-.8-.15-1.18-.27-2.48-.51-4.94-.65-7.43-.14-2.35-.05-4.69-.29-7.03-.16-1.62-.15-3.28-.94-4.65.02-.89-.03-1.77-.2-2.49.23-.88.43-1.76.69-2.61.48-1.55.74-3.08.31-4.68-.08-.28-.44-.3-.59-.08-.11.17-.24.32-.37.45-.14-.33-.57-.54-.87-.19-.19.22-.32.45-.43.69-.51-.17-1.1-.08-1.48.34-.56.62-.8,1.21-.92,2.01-.09.57-.44,1.07-.42,1.62-.16.23-.32.45-.49.68-1.73,2.36-3.49,5.24-2.03,8.15.01.02.03.04.04.06,0,.13-.02.27-.03.4-.18,3.63.44,6.99,1.46,10.32.06.63.13,1.25.18,1.88.25,2.68.61,5.33.95,7.99-.67,4.36-.34,9.03.15,13.36.3,2.65.72,5.3,1.14,7.94.31,1.93.7,4.63,2.55,5.67.13,1.3.28,2.6.44,3.9-.06,4.07.55,8.25,1.1,12.11.44,3.12.65,6.25,1.24,9.35.3,1.56.6,4.53,2.02,5.83.5,1.9,1.5,4.1,3.04,4.99.46.78,1.02,1.49,1.8,1.97.27.17.58.2.88.13.12.11.24.22.35.34.26.26.81.08.78-.32-.03-.28-.06-.57-.1-.85Z"/>
            <path class="cls-8" d="M74.89,39.3c.02-2.33.04-4.65-.05-6.98-.08-2.3-.2-4.61-.61-6.88-.14-.78-.35-1.58-.57-2.37-.09-1.18-.2-2.35-.36-3.51,1.49-2.98-.75-8.31-1.63-10.96-.15-.44-.49-.62-.83-.61-.84-.84-2.17-.95-3.17-.23-.79-.06-1.66.11-2.71.21-2.11.21-4.28.11-6.4.21-3.79.19-7.79.32-11.53,1.06-3.91.78-7.96,1.3-11.9,1.86-3.96.57-8.39.06-12.16,1.56-.25.1-.46.22-.65.37-.02,0-.05,0-.08,0-.93-.03-1.76.06-2.64.38-.4.14-.89.32-1.27.54-.3,0-.59.07-.85.2-.4.07-.79.26-1.13.53-.51.41-.75,1-1.12,1.52-.3.28-.48.7-.44,1.27,0,.03,0,.06,0,.09-.11.34-.18.67-.23,1-.38,1-.23,2.16.52,3.01.19,2.48.4,4.97.65,7.45.24,2.37.25,6.33,1.78,8.66,0,0,0,.01,0,.02.16,3.19.04,7.07,1.28,10.21.22,3.33.25,7,1.36,10.17.96,2.75,4.28,4.54,6.92,5.38,2.45.79,4.7.81,6.86,0,.3.07.6.13.91.17,1.72.23,3.47.04,5.2.07,4.14.06,8.18-.42,12.26-1.13,2.19-.38,4.21-1.06,6.35-1.63,1.04-.28,2.14-.48,3.21-.74.07.01.14.02.21.03.84.06,1.67-.13,2.49-.3,1.69-.34,3.21-.96,4.73-1.8,1.23-.68,2.04-1.88,2.74-3.11.18-.03.37-.08.56-.17,1.74-.78,2.36-3.75,2.5-5.45.06-.69.04-1.65-.08-2.64.27-2.47.14-4.97-.13-7.47ZM25.67,56.92c-.12.02-.23.06-.33.11-.99-.96-1.14-2.58-1.45-3.88-.71-2.96-1.12-5.98-1.73-8.95-.31-1.53-.51-3.49-.99-5.23-.09-.63-.17-1.26-.26-1.9-.03-.2-.06-.4-.09-.6.22-2.8-.92-5.91-1.26-8.55-.12-.92-.23-1.84-.34-2.76.36-.05.7-.2.94-.46.66-.73,1.19-1.44,1.55-2.37.26-.66.26-1.55.44-2.29,2.39-.97,4.81-2.03,7.36-2.34,1.35-.16,2.69-.43,3.92-1.03.7-.34,1.37-.83,2.07-1.23,3.61-.39,7.28-.58,10.88-1.09.46-.07.92-.13,1.37-.19-2.07.59-3.98,1.55-5.53,3.28-1.56,1.73-.07,4.81,2.37,4.07,3.78-1.13,7.58-1.89,11.47-2.57,3.13-.55,6.82-1.47,9.78-3.1.01.79.17,1.57.57,2.32.06.11.13.2.21.29-.01.11-.03.23-.04.34-.22,2.18-.52,4.72.91,6.5.18,1.92.24,3.86.37,5.78.16,2.38.4,4.74.67,7.1-.27,1.06-.41,2.18-.53,3.16-.29,2.54-.38,5.34.27,7.83.06.25.15.47.26.65-2.22-.43-4.55.71-6.66,1.43-1.1.38-2.21.73-3.33,1.08-4.42,0-8.92.85-13.16,1.81-3.33.76-6.62.99-10.02,1.08-3.43.09-6.38,1.01-9.67,1.7Z"/>
            <path class="cls-5" d="M70.41,49.4c.15-.23.22-.52.13-.82h0c-.17-.93-.3-1.88-.41-2.83.01-.05.03-.09.04-.14.9-5.46-.78-11.16-.2-16.66.06-.53-.27-.83-.67-.9,0-.44-.01-.88-.02-1.32,0-.06,0-.13,0-.19.1-3.56-.81-7.16-.5-10.68.03-.29-.22-.46-.48-.48-.03-.11-.07-.23-.11-.33-.03-.06-.06-.11-.09-.16-.04-.32-.2-.62-.41-.88-.27-.32-.67-.59-1.1-.58-.1,0-.19.02-.27.05-.17-.06-.36-.1-.57-.1-3.08,0-6.17-.15-9.27-.02-2.77.11-5.34.73-7.98,1.38-1.89-.01-4.03.45-5.24.59-.08,0-.15.02-.23.03-1.51-.25-3.05-.19-4.6-.03-1.24.13-2.79.38-4.13.84h-.02c-1.23-.91-2.44-.25-3.86.04-2.17.46-4.28,1.13-6.47,1.44-1.68.24-4.5.61-5.09,2.57-.25.85.08,1.89.2,2.72.23,1.55.23,3.14,1,4.5,0,1.39-.03,2.79.02,4.18.09,2.5-.06,5.63,1.31,7.85-.05,1.36-.06,2.7.05,4.13.15,2.03.09,5.24,1.7,6.75.11,1.67.38,3.41,1.23,4.47,0,.02,0,.05,0,.07-.13.15-.18.35-.13.6.04.18.12.32.23.43.02.05.04.11.07.16.14.28.41.54.68.68.57.28,1.11.07,1.37-.35.64-.05,1.16-.27,1.59-.67,2.3.39,4.98.21,7.15-.09.59-.08,1.21-.18,1.84-.32.48-.05.96-.1,1.43-.14,2.13-.17,4.28-.27,6.39-.66.15-.03.28-.06.42-.1,1.46-.15,2.92-.44,4.34-.68,2.98.27,5.92-.32,8.92-.71,2.37-.31,4.56-.43,6.66-1.11,1.75.03,3.49-.17,4.96-.86.7-.32.62-1.24.14-1.69ZM35.39,53.23c.13-.16.25-.32.36-.48.21.13.44.23.68.31-.35.06-.69.11-1.04.18ZM67.83,41.44c-.11-.16-.27-.22-.43-.21,0-.01-.02-.03-.03-.04,0-.01-.02-.03-.03-.04.19-.29.34-.58.46-.86.03.13.05.25.08.38,0,.29,0,.59.01.88-.02-.04-.04-.07-.06-.11Z"/>
            <path class="cls-5" d="M64.25,27.17c-1.38-1.08-3.53-1.67-5.26-1.12-1.72.55-3.09,1.79-3.9,3.39-.63,1.23-1.32,3.05-.71,4.38.04.57.21,1.12.58,1.64.05.06.1.13.15.19.03.18.05.36.1.56.21.99.53,1.88,1.51,2.36.06.03.66.21.82.25.32.13.61.3.99.35,1.73.26,3.62,0,4.66-1.5.17-.24.36-.52.55-.82.3-.34.56-.7.74-1,.12-.19.21-.41.28-.63.1-.15.19-.31.27-.47.12-.23.22-.47.29-.71.27-.47.44-1.01.3-1.56.02-.19.02-.37-.02-.56.05-.09.09-.2.12-.31.46-1.83,0-3.29-1.49-4.46Z"/>
            <path class="cls-5" d="M50.43,34.29c-.44-.82-1.32-1.33-2.24-.97-.32.12-.58.34-.78.6-.63,0-1.25.03-1.91.11-1.25.14-2.4.48-3.66.71-.96.18-1.97.31-2.03,1.53-.05.95.62,1.47,1.14,1.82.28.19.62.06.8-.19.04,0,.07.02.11.01,1.42-.1,2.72.15,4.13-.19.69-.16,1.45-.32,2.11-.55.3-.1.57-.26.83-.43.56,0,.92-.27,1.1-.64.6-.36.69-1.25.39-1.81Z"/>
            <path class="cls-5" d="M35.66,33.72c-.33-.75-.91-1.38-1.43-1.85-.79-.72-1.96-1.07-3.05-.98-1.1-.24-2.27-.12-3.12.5-.1-.02-.21-.02-.33,0-2.2.36-2.88,2.6-3.06,4.51-.21,2.2.17,3.79,1.49,5.54,2.4,3.19,7.45,1.89,8.9-1.28.95-.6,1.33-2.1,1.48-3.1.19-1.27.07-2.55-.87-3.33Z"/>
            <path class="cls-3" d="M38.85,78.78c-.62-.37-1.44-.05-2.07.07-.74.14-1.46.23-2.17.42-.12-.45-.26-.9-.4-1.35-.04-.92-.09-1.84-.53-2.59.56-.62-.09-1.7-.9-1.8-1.03-.12-1.85-.17-2.88-.06-.8.09-1.54.48-2.31.54-.8.07-1.26.57-1.36,1.36-.09.73-.26,1.46-.2,2.31.05.61.14,1.21.26,1.8-.19.1-.37.21-.54.32-.2.06-.43.11-.58.17-.35.14-.66.29-1.03.43-.76.28-1.57.95-2.11,1.54-.62.67-.69,1.37-.46,2.15-.02.31.03.6.14.91.02.07.06.16.1.25-.51.48-.7,1.3-.07,1.98.18.2.4.35.63.5.08.07.17.13.26.18.11.26.34.46.67.45.76-.02,1.49-.18,2.24-.28.04.04.07.08.12.11.77.61,1.15,1.33,1.46,2.12.05.28.09.55.15.83.02.62.07,1.23.23,1.81.01,1.07.18,2.3,1.49,2.39,1.01.07,2.16-.45,3.14-.62.77-.14,1.77-.18,2.43-.68.36-.02.72-.27.88-.64.54-1.29.19-3.02,0-4.35-.07-.48-.1-.99-.13-1.5.68-.31,1.23-.79,1.92-1.08.18.11.39.18.65.19.55.01,1.07-.11,1.46-.54.04-.05.1-.14.16-.26.45-.43.47-1.06.23-1.53.57-1.79.38-4.81-.9-5.57Z"/>
            <path class="cls-7" d="M66.89,83.58c-.54-.26-1.16-.34-1.82-.16-.12.03-.24.09-.35.14-.38.03-.77.17-1.15.45-1.39,1-1.61,2.82-2.03,4.34-.18.65.03,1.16.41,1.48.04,1.99,2.46,3.15,4.47,3,2.65-.2,3.9-2.54,4.08-4.98.16-2.18-1.27-4.24-3.6-4.26Z"/>
            <path class="cls-6" d="M78.32,77.12c.04-1.91-.67-3.95-2.6-4.7-.84-.33-1.76-.22-2.61.13-.9-.06-1.78.39-2.31,1.29-.19.33-.34.68-.46,1.04-.11.19-.22.4-.3.61-.52.7-.78,1.57-.95,2.45-.26,1.36.17,2.22.94,3.3.43.61,1.06.8,1.62.64.02.01.05.02.08.03-.3.39-.22,1.07.36,1.19,1.41.3,2.59-.1,3.5-1.21.05-.06.11-.13.16-.2.42-.06.74-.25.99-.53.35-.2.67-.47.95-.85.47-.63.98-2.26.63-3.2Z"/>
            <path class="cls-4" d="M56.75,100.15c-.46-.85-1.55-.9-2.4-.9-1.07,0-2.21-.11-3.17.41-.52.28-1.08.54-1.57.88-.65,0-1.33.23-1.77.6,0,0,0,0,0,0-1.19.12-1.78,1.66-.64,2.35.65.39,1.49.37,2.3.14.78.3,1.84.23,2.46,0,.24-.09.48-.19.71-.3.21-.06.42-.12.64-.21.35-.14.82-.34,1.23-.61.43.22.98.19,1.46-.26.62-.57,1.25-1.18.75-2.11Z"/>
            <path class="cls-1" d="M30.49,91.46c-.21-1.38-.17-2.79-.42-4.15-.11-.63-.91-1.26-1.56-1.19-.91.1-1.81.49-2.64.93-.03-.08-.06-.15-.1-.23-.03-.06-.34-.58-.39-.58-.15-.52-.16-1.13-.2-1.63-.03-.31-.14-.89-.22-1.37.44-.13.9-.26,1.31-.55.7-.51,1.58-1.16,2.17-1.8,1.6-1.73.74-4.49.38-6.55-.17-1-1.85-1-2.03,0-.17.94-.27,1.88-.4,2.82-.17,1.2-.3,1.16-1.11,1.83-.79.66-1.21.85-2.13,1.21-.65.26-1.17.58-1.49,1.22-.54,1.08-.01,2.68.09,3.82.12,1.31.25,2.98,1.56,3.63.29.14.64.22.98.21.07.52.42.93,1.19.87.48-.04.96-.02,1.43-.07,0,.12,0,.23.01.35.09.86.17,1.73.29,2.59.2,1.49.38,3.27,2.28,3.32.61.02,1.37-.48,1.48-1.12.19-1.17-.31-2.41-.48-3.57Z"/>
            <path class="cls-1" d="M41.09,85.24c-.74-1.01-2.04-1.07-3.21-1.06-1.16,0-2.27-.03-3.19.77-.51.45-.46,1.32,0,1.78.3.3.61.41,1,.43,1.73.38,4.31.65,5.39-.83.2-.28.2-.8,0-1.08Z"/>
            <path class="cls-1" d="M54.55,101.77c-2.43-1.06-4.67,1.14-7.09-.06-1.44-.72-3.06,1.1-1.79,2.32,2.42,2.34,6.76,1.7,9.11-.49.48-.45.43-1.48-.23-1.77Z"/>
          </g>
          <g>
            <path d="M36.18,116.19c-3.1,0-6.19-.23-9.18-.69-.45-.07-.9-.13-1.35-.18-.7-.09-1.41-.18-2.08-.31-3.3-.65-6.05-2.02-8.41-4.2-1.64-1.52-2.96-3.27-3.9-5.22-.48-.98-.68-2.14-.87-3.27-.04-.25-.08-.48-.12-.7-.95-5.19-1.76-9.78-2.47-14.02-.67-3.95-1.31-8.01-1.91-12.05-.29-1.97-.57-3.95-.84-5.93l-.03-.23c-.3-2.18-.61-4.43-.95-6.65-.06-.37-.25-.79-.53-1.16-.02-.27-.04-.54-.07-.81-.03-.53-.07-.98-.13-1.39l.19-.07-.15-1.25c-.09-.71-.17-1.38-.23-2.06-.24-2.49-.59-4.99-.93-7.42-.45-3.19-.91-6.47-1.11-9.74-.08-1.25-.24-2.51-.4-3.73-.15-1.2-.31-2.42-.39-3.63C.12,28.3,0,25.03,0,21.77c0-.97.23-2.07.66-3.08,1.55-3.66,3.85-6.62,6.86-8.81,1.45-1.05,3.31-1.92,5.38-2.51l.07-.02c2.99-.85,6.09-1.72,9.27-1.72h.25c.08,0,.14,0,.19,0,.8-.11,1.61-.23,2.41-.35,1.75-.27,3.56-.54,5.33-.66,2.19-.14,4.33-.63,6.4-1.11,1.51-.35,3.07-.71,4.62-.92,1.79-.25,3.58-.48,5.37-.72,2.91-.38,5.91-.77,8.88-1.23,2.56-.4,5.35-.59,8.51-.59.96,0,1.94.02,3.02.05.14,0,.29,0,.43,0,.55,0,1.11-.03,1.64-.06.01,0,.52-.03.72-.04.1,0,.2,0,.3,0,1.4,0,2.77.44,4.09.86.25.08.42.17.5.26.17.18.35.36.52.54,1.36,1.39,2.77,2.82,3.14,4.84.08.43.27,1.44.27,1.44.3,1.58.61,3.21.82,4.83.23,1.85.4,3.73.56,5.56.09,1.02.18,1.99.27,2.96.23,2.32.46,4.64.69,6.96v.08c.29,2.81.57,5.62.85,8.43.1,1.04.18,2.09.27,3.22l.04.47c0,1.01.13,2.02.39,2.98.03.28.07.61.13.94,0,0,0,.21.01.26.42,4.28.88,8.5,1.3,12.44.23,2.12.46,4.24.7,6.37l.05.42c.21,1.93.43,3.85.64,5.78.21,1.9.42,3.92.6,5.92.23,2.63.42,4.95.57,7.09.1,1.46.17,2.97.2,4.63.09,4.1-1.2,8.1-3.85,11.89-1.53,2.19-3.34,4.23-5.07,6.11-1.31,1.42-2.89,2.44-4.69,3.02-.45.15-.9.33-1.3.49-.49.2-.95.38-1.42.52-1.19.36-2.38.73-3.58,1.09-3.35,1.03-6.78,2.08-10.19,2.96-6.02,1.54-11.62,2.43-17.13,2.73-1.17.06-2.35.1-3.52.1ZM8.15,16.6c.29,4.76.64,8.69,1.11,12.33.54,4.26,1.2,8.56,1.83,12.73.29,1.89.57,3.78.85,5.67l.3,2.05c.37,2.48.73,4.95,1.07,7.43.28,2.03.53,4.08.77,6.07l.24,2c.13,1.02.25,2.03.38,3.05.32,2.52.65,5.09.91,7.61.16,1.56.28,3.16.4,4.71.15,1.98.3,4.01.54,6,.73,6.08,1.58,12.59,2.6,19.88l.02.16c.31,2.21.63,4.49,2,6.48.48.7,1,1.18,2,1.27,2.68.23,5.37.47,8.05.72l2.93.27c4.06-.05,8.19-.44,12.28-1.17,9-1.6,17.1-3.17,25.02-6.15,2.18-.82,3.89-1.9,5.24-3.31,3.36-3.51,5.57-6.48,7.16-9.63,1.16-2.29,1.74-4.63,1.79-7.14.12-6.2-.73-12.38-1.54-17.7-.64-4.18-1.14-8.44-1.63-12.56l-.3-2.55c-.42-3.47-.77-6.98-1.05-9.96-.23-2.43-.44-4.96-.61-7.52-.09-1.37-.16-2.75-.23-4.12-.06-1.23-.12-2.41-.19-3.58l-.12-1.89c-.19-3.04-.38-6.19-.64-9.28-.29-3.39-.62-6.47-1.02-9.41-.28-2.02-.86-4.6-2.95-6.61-.85-.81-1.6-1.16-2.54-1.16l.02.02c-.16-.03-.59-.03-1.68-.03-.55,0-1.28,0-2.01.06l-1.93.15c-3.77.29-7.62.58-11.4.98-4.22.44-8.5,1.01-12.64,1.56l-.92.12c-1.39.18-2.81.41-4.06.61-2.08.33-4.19.66-6.28.86-6.88.68-12.93,1.72-18.52,3.17-1.27.33-2.5.85-3.69,1.35-.48.2-1.01.68-1.08,1.18-.04.3-.09.6-.14.91-.11.68-.22,1.37-.29,2.06,0-.52.02-1.05.02-1.57,0-.23-.04-.45-.08-.7-.03-.15-.05-.27-.07-.41l-.09-.65-1.32,1.05c-1.12.9-1.9,2.05-2.65,3.17-.41.6-.83,1.22-1.28,1.77-1.58,1.92-2.21,4.25-1.93,7.11l.02.2c.4,4.02.8,8.17,1.35,12.23.49,3.69,1.04,7.43,1.57,11.05l.04.27c.4,2.74.8,5.49,1.19,8.24.68,4.86,1.32,9.75,1.94,14.48l.54,4.1c.17,1.32.33,2.65.49,3.97.32,2.64.64,5.35,1.09,8,.69,4.11,1.49,8.26,2.26,12.26.35,1.82.7,3.64,1.04,5.46.03.17.04.36.06.54.03.45.06.91.3,1.28,1.58,2.48,3.53,4.33,5.97,5.66l.69.38-.14-.78c-.13-.69-.26-1.35-.39-1.99l-.02-.09c-.28-1.43-.55-2.78-.75-4.14-.53-3.76-1.05-7.73-1.52-11.81-.62-5.29-1.18-10.65-1.6-14.72-.12-1.19-.22-2.38-.32-3.58-.12-1.48-.24-3.01-.42-4.54-.72-6.19-1.35-11.18-1.98-15.71-.69-5.01-1.33-9.52-2.17-14.09-1.14-6.22-1.76-12.73-1.91-19.89-.03-1.42-.01-2.86.01-4.27Z"/>
            <path d="M33.5,63.93c-3.79-.02-7.06-.57-9.99-1.68-1.93-.73-3.08-1.88-3.52-3.5-.47-1.76-1.01-3.86-1.43-6.04-.54-2.87-.99-5.76-1.39-8.44-.31-2.08-.59-4.18-.86-6.2-.17-1.28-.34-2.5-.51-3.72-.17-1.24-.35-2.47-.53-3.71-.38-2.61-.76-5.3-1.08-7.94-.14-1.21-.12-2.47-.1-3.68,0-.31.01-.61.01-.92,0-.65.19-1.25.59-1.84-.36.77-.45,1.71-.33,2.87.33,3.17.77,6.27,1.32,9.95.56,3.76,1.14,7.52,1.71,11.27l.06.41c.56,3.62,1.11,7.24,1.65,10.86.34,2.31.78,4.78,1.63,7.14.51,1.42,1.23,2.29,2.27,2.73,1.47.62,2.68,1.01,3.79,1.23,2.43.48,4.86.55,7.12.55.69,0,1.39,0,2.09-.01h.14c.67,0,1.34-.01,2.03-.01h.12c1.55-.12,3.07-.19,4.68-.26h.09c3.15-.15,6.41-.29,9.65-.82,4.96-.8,8.73-1.67,12.2-2.84,2.93-.99,5.38-2.68,7.39-4.2,1.67-1.27,2.56-2.8,2.63-4.55.07-1.8.04-3.62,0-5.38-.07-4-.17-7.99-.26-11.99l-.04-1.84c-.02-.73-.04-1.39-.1-2.06l-.23-2.33c-.29-2.92-.59-5.95-.93-8.94-.06-.56-.12-1.12-.18-1.68-.21-2.02-.42-4.11-1.01-6.13l-.04-.15c-.58-1.98-.8-2.71-2.39-2.71-.41,0-.92.05-1.55.1-2.98.28-6.07.59-8.82.87h-.07c-2.05.22-4.1.43-6.15.63-1.81.18-3.62.34-5.44.51-2.05.19-4.09.37-6.13.58l-2.03.2c-2.88.28-5.8.56-8.67.97-2.83.4-5.68.94-8.44,1.47l-1.59.3c-1.08.2-2.14.5-3.14.87-.33.12-.63.25-.91.39,1.15-.76,2.51-1.3,4.12-1.65,6.12-1.32,11.59-2.25,16.72-2.84,2.16-.25,4.34-.41,6.45-.57,1.42-.11,3.01-.23,4.54-.37,1.96-.18,3.93-.41,5.84-.63,1.19-.13,2.37-.27,3.55-.39l2.45-.26c2.67-.29,5.38-.59,8.09-.81.24-.02.47-.03.68-.03,1.7,0,2.38.58,3.05,2.57.67,2.01,1.14,4.16,1.43,6.59.23,1.88.48,3.76.73,5.64.38,2.88.78,5.86,1.08,8.77.22,2.12.27,4.3.32,6.42.02.82.04,1.62.07,2.42.02.75.02,1.51.01,2.25,0,.03,0,.76,0,1.08v.37h.23s0,1.29,0,1.29c0,1.34,0,2.68,0,4.01,0,.9-.01,1.82-.11,2.73-.21,2.06-1.33,3.78-3.52,5.43-2.64,1.99-5.48,3.38-8.68,4.27-2.67.74-5.68,1.58-8.7,2.08-3.15.52-7.32,1.12-11.64,1.14-1.51,0-3.04.05-4.52.08-1.64.04-3.33.08-5.02.08h-.49Z"/>
            <path d="M28.49,96.4c-1.04,0-1.44-.42-1.6-1.66-.1-.79-.16-1.6-.22-2.38-.03-.45-.06-.83-.09-1.22-.03-.39-.07-.78-.12-1.23l-.1-1-.36.02c-.29.02-.58.03-.86.05h-.15c-.72.05-1.41.08-2.11.16-.18.02-.35.03-.51.03-1,0-1.39-.45-1.42-1.61-.05-2.06-.02-4.11.01-5.66.02-.86.11-.96,1.06-1.23.26-.07.51-.13.77-.2.4-.1.81-.2,1.2-.32.27-.08.51-.21.79-.35.14-.07.29-.15.45-.22l.23-.11-.02-.26c-.03-.29-.05-.59-.07-.88-.05-.62-.1-1.32-.19-1.99-.23-1.7.26-2.55,1.79-3.13.6-.23,1.27-.37,1.91-.5.25-.05.47-.1.7-.15.21-.05.71-.17.71-.17.68-.16,1.38-.33,2.07-.4.24-.02.45-.04.64-.04.77,0,.98.13,1.32,1.44.18.69.29,1.41.39,2.12.04.28.08.57.13.85.06.38.12.76.18,1.2l.15,1.06s.83-.15,1.03-.19c.43-.08.76-.14,1.1-.18l.24-.03c.4-.05.8-.1,1.17-.1.09,0,.17,0,.26,0,.7.05,1.03.35,1.1,1.02.21,1.91.44,4.07.57,6.21.07,1.18-.12,1.41-1.39,1.65-.66.12-1.33.26-1.99.39l-1.43.28.14,1.78c.09,1.11.17,2.18.27,3.25.08.89-.29,1.54-1.15,1.98-.34.17-.73.36-1.13.47-1.3.36-2.62.69-3.9,1.01l-.31.08c-.25.06-.52.11-.8.13-.16.01-.31.02-.44.02ZM24.72,88.31c2.15,0,2.49.42,2.77,3.47.07.77.18,1.55.3,2.37.06.43.12.84.18,1.27l.06.42,2.24-.59c1.41-.37,2.87-.75,4.31-1.16.33-.09,1.08-.44.96-1.68-.05-.46-.07-.92-.09-1.39-.01-.27-.03-.52-.04-.76-.01-.22-.02-.44-.03-.66-.02-.55-.04-1.11-.14-1.67-.04-.21-.13-.7-.05-.8.08-.1.6-.17.82-.2.82-.1,1.64-.26,2.44-.4.38-.07.73-.14,1.09-.2l.29-.05.02-.29c.24-2.8.16-4.91-.26-7.08l-.07-.35-.89.13c-.47.07-.82.12-1.17.18-.25.05-.5.1-.75.16-.47.1-.91.2-1.35.24-.07,0-.14,0-.2,0-.61,0-.85-.25-.95-.98-.03-.2-.03-.41-.04-.61-.01-.28-.03-.56-.07-.85-.05-.33-.09-.66-.12-.99-.09-.94-.18-1.91-.73-2.82v-.02s-.07-.07-.07-.07l-.09-.06c-.16-.03-.21-.04-.26-.05-.12-.02-.24-.05-.37-.05-.06,0-.12,0-.17.02l-.95.2c-1.34.28-2.69.55-4.02.89-1.05.26-1.54,1.04-1.4,2.17.07.56.16,1.11.25,1.67.06.39.12.72.17,1.06q.19,1.29-1.04,1.62c-.8.22-1.59.42-2.45.63l-1.52.38.61,7.16.39-.06c.18-.03.34-.05.49-.08.26-.04.46-.08.65-.08.49-.02.92-.03,1.3-.03Z"/>
            <path d="M73.77,83.32c-1.8-.04-3.29-.7-4.2-1.84-.91-1.15-1.21-2.76-.85-4.53.49-2.4,1.78-4.11,3.93-5.21.63-.33,1.26-.49,1.87-.49.81,0,1.6.29,2.36.86,1.89,1.43,2.4,3.26,2.49,4.54.14,1.93-.59,3.95-1.9,5.28-.76.77-2.38,1.39-3.62,1.39h-.09ZM74.16,71.95c-.43,0-.87.09-1.32.26-2.01.78-3.59,3.21-3.68,5.64-.08,2.11.94,3.75,2.71,4.4.57.21,1.18.31,1.81.31,1.61,0,3.09-.7,3.87-1.84,2.01-2.92,1.5-5.8-1.46-8.11-.58-.45-1.23-.68-1.94-.68Z"/>
            <path d="M66.2,94.06c-3.58-.14-4.66-1.68-5.49-4.66-.34-1.21-.08-2.36.75-3.34.34-.4.64-.82.94-1.23l.04-.05c.2-.27.4-.55.6-.82.79-1.02,1.49-1.45,2.32-1.45.47,0,1,.13,1.68.4,1.47.59,2.65,1.6,3.5,3,.39.64.61,1.31.6,1.82-.05,2.23-.64,3.83-1.85,5.04-.96.95-1.75,1.29-3.02,1.29h-.08ZM65.28,83.16c-.42,0-.99.12-1.29.44-1.12,1.2-2.23,2.53-2.44,4.42-.14,1.28.44,2.31.95,3.21.65,1.16,2.07,1.94,3.53,1.94.65,0,1.27-.16,1.78-.47,1.83-1.1,2.73-2.72,2.85-5.11-.02-.13-.02-.21-.03-.3-.03-.34-.08-.79-.31-1.17-1.06-1.73-2.67-2.72-4.8-2.96-.07,0-.15-.01-.23-.01Z"/>
            <path d="M49.78,104.23c-.24-.04-.47-.08-.7-.11h-.08c-.59-.11-1.15-.19-1.68-.33-.62-.16-.95-.49-1.02-1.07-.08-.62.12-1.03.65-1.34,1.2-.69,2.66-1.44,4.3-1.7.09-.01.18-.02.27-.03.36-.03.7-.06.99-.24.48-.3,1.01-.44,1.67-.44.47,0,.96.07,1.41.13.25.03.44.06.63.08.55.06.97.31,1.18.7.22.4.2.91-.06,1.43-.51,1.05-1.18,1.65-2.06,1.84-1.34.28-2.67.53-3.95.77l-1.56.29ZM54.34,99.52c-1.44,0-2.95.24-4.87.78-.77.21-1.47.64-2.17,1.09-.33.21-.87.86-.69,1.32.18.48.71.86,1.13,1,.44.14.9.18,1.38.23.25.02.44.04.65.07l1.46-.24c1.14-.2,2.29-.41,3.42-.68,1.04-.25,1.78-.83,2.15-1.67.22-.51.24-.91.06-1.23-.18-.32-.54-.51-1.08-.57-.47-.06-.95-.09-1.44-.09Z"/>
            <path d="M71.76,97.77c-.07,0-.15-.02-.23-.06-.11-.06-.44-.24-.07-1.05.16-.35.36-.68.54-.97l.78-1.24c1.15-1.82,2.32-3.67,3.5-5.49.06-.1.13-.2.19-.31.24-.39.49-.8.88-1.01.13.41-.06.75-.29,1.18l-.07.14c-.63,1.16-1.27,2.31-1.92,3.45-.39.69-.76,1.34-1.12,2-.21.38-.42.76-.62,1.14l-.03.07c-.28.53-.57,1.07-.87,1.59-.21.36-.45.57-.67.57Z"/>
            <path d="M73.88,99.82c-.11,0-.21-.02-.27-.05,0-.02-.1-.26-.09-.48,0-.22.14-.48.27-.74l.54-1.07c1.08-2.12,2.19-4.3,3.33-6.44l.12-.22c.24-.47.47-.92.92-1.12.12.23.03.43-.14.77-.05.1-.1.19-.13.27-.48,1.12-1,2.25-1.5,3.34-.27.6-.52,1.13-.76,1.67-.2.44-.39.88-.59,1.32l-.09.19c-.27.6-.53,1.2-.8,1.79l-.08.18c-.07.16-.19.44-.29.49-.11.06-.27.1-.44.1Z"/>
            <path d="M76.29,101.03s-.04,0-.04,0c-.02-.02-.11-.21-.1-.33.02-.18.13-.38.23-.58.04-.08.08-.16.11-.23l.57-1.22c.96-2.05,1.92-4.1,2.9-6.14.03-.07.06-.14.09-.21.12-.3.21-.51.49-.62v.05c-.02.31-.04.58-.13.79-1.02,2.37-2.11,4.8-3.07,6.95l-.46,1.02c-.07.15-.17.38-.24.42-.1.06-.26.11-.37.11Z"/>
            <path d="M23.9,56.86c-.09,0-.44-.26-.55-.51-.27-.65-.41-1.38-.52-2.02-.16-.96-.33-1.92-.5-2.89-.5-2.89-1.03-5.88-1.44-8.85-.33-2.34-.56-4.72-.78-7.02v-.1c-.12-1.1-.22-2.18-.34-3.26-.04-.34-.11-1.11-.11-1.11-.11-1.07-.21-2.17-.4-3.24-.49-2.89-.38-5.69-.21-8.79,1.02-1.03,2.34-1.34,3.61-1.65l.22-.05c.76-.18,1.51-.38,2.26-.58l.09-.02c1.72-.45,3.5-.91,5.26-1.22,3.33-.6,6.66-.97,9.18-1.23,4.03-.41,8.06-.74,12.87-1.1,1.41-.11,2.82-.17,4.19-.23,1.07-.05,2.14-.1,3.21-.17.95-.06,1.9-.15,2.85-.23l.19-.02c.72-.06,1.45-.13,2.17-.18.49-.03.95-.05,1.39-.05.3,0,.59,0,.89.02.76.05,1.01.27,1.1,1.01.35,2.74.64,5.5.9,8.07.15,1.43.28,2.87.41,4.31l.02.27c.08.89.16,1.77.25,2.65.06.65.13,1.3.2,1.95v.07c.14,1.23.28,2.5.36,3.75.09,1.35.14,2.73.18,4.06.04,1.18.08,2.33.15,3.49.05.8.13,1.59.21,2.35.07.7.15,1.43.19,2.14.09,1.35.12,2.66.09,3.89-.01.75-.39,1.18-1.3,1.48-1.85.61-3.79.81-5.68,1.01-.91.1-1.9.2-2.85.35-4.73.74-9.5,1.35-13.95,1.89-2.2.27-4.43.46-6.59.64-.73.06-1.4.12-2.07.18-2.36.21-5.03.44-7.67.62-2.73.18-5.18.3-7.49.36h0ZM66.72,13c-.48.03-.94.07-1.4.11-.55.05-1.1.1-1.64.15h-.08c-1,.11-2.04.21-3.04.27-1.05.07-2.11.11-3.16.16h-.33c-1.25.07-2.68.14-4.06.24-4.68.34-9.26.7-13.61,1.09l-.73.06c-2.19.19-4.46.39-6.66.79-2.54.46-5.06,1.05-7.51,1.61l-.19.04c-.9.21-1.79.41-2.68.61-1.64.37-2.31,1.2-2.3,2.88,0,.84.06,1.75.2,2.94.16,1.41.33,2.82.5,4.23l.03.23c.18,1.44.35,2.89.52,4.33.12,1.06.23,2.12.33,3.18.18,1.8.36,3.66.62,5.49.38,2.63.84,5.3,1.29,7.88.18,1.07.37,2.11.54,3.15.14.86.3,1.71.45,2.61l.3,1.72,1.71-.14c.95-.08,1.84-.15,2.72-.25.94-.1,1.87-.22,2.8-.34,1.77-.22,3.59-.46,5.4-.55,4.58-.24,9.4-.77,15.62-1.74,2.63-.41,5.31-.76,7.91-1.09h.06c1.96-.26,3.99-.53,5.97-.81.89-.13,1.74-.35,2.63-.59.41-.11.81-.22,1.21-.32l.29-.07v-.29c0-.46,0-.9.01-1.33.01-.92.02-1.78-.02-2.64-.05-.96-.14-1.95-.22-2.83-.09-.99-.17-1.98-.22-2.96-.07-1.37-.12-2.73-.17-4.1-.07-1.85-.14-3.76-.26-5.64-.19-2.87-.45-5.79-.69-8.61-.12-1.36-.23-2.67-.34-3.99-.02-.3-.05-.6-.07-.9-.1-1.43-.2-2.91-.73-4.4l-.1-.27-.93.07Z"/>
          </g>
        </g>
      </g>
    </g>
  </g>
</svg>