<?xml version="1.0" encoding="UTF-8"?>
<svg id="Layer_2" data-name="Layer 2" xmlns="http://www.w3.org/2000/svg" viewBox="0 0 135.45 121.65">
  <defs>
    <style>
      .cls-1 {
        fill: #6b7384;
      }

      .cls-1, .cls-2, .cls-3, .cls-4, .cls-5 {
        fill-rule: evenodd;
      }

      .cls-2 {
        fill: #3b53a1;
      }

      .cls-3 {
        fill: #6bcad9;
      }

      .cls-4 {
        fill: #ee5742;
      }

      .cls-5 {
        fill: #1b1a1a;
      }
    </style>
  </defs>
  <g id="objects">
    <g id="_05" data-name="05">
      <g>
        <path class="cls-5" d="M27.35,105.66c.59-3.83.26-7.46.61-11.05.18-1.87.41-2.32,2.24-2.5,1.22-.12,2.48-.24,3.68-.07,5.7.79,11.37.57,17.04-.19.78-.11,1.58-.11,2.32-.16.21-3.76.26-7.43.21-11.11-.02-1.56.17-1.86,1.7-1.8,3.03.11,6.06-.22,9.08.1,2.13.23,2.42-.03,2.29-2.15-.16-2.53-.35-5.05-.52-7.58-.03-.43-.09-.87-.07-1.3.06-1.49.28-1.75,1.78-1.78,3.91-.1,7.82-.02,11.72-.24,3.91-.22,7.82-.11,11.72-.16.94-.01,1.88.13,2.81.25,2.02.27,2.13.38,2.08,2.45-.14,5.77-.31,11.55-.46,17.32-.04,1.52.05,3.05-.04,4.56-.07,1.1.38,1.43,1.38,1.3,4.11-.5,8.25-.27,12.37-.16,3.54.1,7.08.38,10.63.37.28,0,.56-.04,1.05-.08-.51-2.78-.46-5.5-.5-8.23-.12-8.25-.23-16.5.09-24.75.08-2.09-.25-4.19.2-6.28.17-.78.44-1.13,1.24-1.14,3.91-.04,7.8.08,11.68.54,1.06.13,1.43.81,1.45,1.81.03,2.1.1,4.2-.09,6.3-.12,1.3-.1,2.59.04,3.9.39,3.46.24,6.95.26,10.42.02,5.29.26,10.59-.11,15.86-.52,7.45-.22,14.89-.35,22.34-.04,2.11.34,4.18.42,6.28.07,2,0,1.97-1.98,2.16-5.21.52-10.42-.28-15.63,0-6.29.33-12.59.08-18.88.05-2.6-.01-5.18-.35-7.79-.31-4.55.08-9.11-.1-13.66-.07-5.28.04-10.56-.11-15.84.05-2,.06-4.06.07-6.06-.36-.35-.07-.79-.26-1.06-.12-2.05,1.02-4.12.44-6.17.11-2.17-.34-4.33.09-6.5-.04-7.44-.45-14.86.02-22.28.59-.36.03-.72.05-1.08.04-3.84-.1-7.63.47-11.44.8-1.75.15-3.46-.26-5.14-.67-1.12-.28-1.16-1.4-1.25-2.31-.22-2.16-.42-4.33-.47-6.49-.22-10.07.07-20.13.57-30.18.15-3.08.21-3.1,3.28-2.92,2.95.17,5.9.43,8.83-.34,1.33-.35,1.59-.04,1.63,1.45.06,2.03.06,4.05.13,6.08.17,5.5.41,10.99.3,16.49-.04,1.92,0,1.84,1.88,2.09,3.09.41,6.19.59,9.3.84.42.03.85,0,1.36,0ZM101.38,119.61v.07c1.67,0,3.33.02,4.99,0,1.51-.03,1.58-.08,1.52-1.64-.11-3.32-.31-6.64-.4-9.96-.03-1.13-.48-1.49-1.57-1.5-3.11-.04-6.22-.15-9.33-.27-1.68-.06-1.87-.06-1.72,1.57.32,3.4-.07,6.78-.05,10.17,0,.15.01.29,0,.43-.11.86.33,1.14,1.13,1.13,1.81-.02,3.62,0,5.43,0ZM13.49,112.9s0,0,0,0c0-1.8.03-3.61,0-5.41-.03-1.36-.23-1.58-1.54-1.31-1.79.37-3.59.32-5.39.32-1.37,0-2.74.04-4.11.05-.67,0-1.11.22-1.1.98.03,3.53-.06,7.07.34,10.59.12,1.07.6,1.44,1.61,1.62,2.95.52,5.87.32,8.81-.11,1.15-.17,1.42-.76,1.41-1.75-.02-1.66,0-3.32,0-4.98ZM53.96,106.73c0,3.83,0,7.5,0,11.17,0,.83.5,1.06,1.23,1.18,3.45.57,6.9.26,10.35.14.68-.02,1.11-.28,1.06-1.03-.22-3.33.44-6.62.41-9.93-.01-1.55-.25-1.75-1.78-1.57-3.66.43-7.33.28-11.27.03ZM80.51,112.89c0-1.46,0-2.97,0-4.49,0-1.74,0-1.84-1.82-1.76-2.88.12-5.75.23-8.63-.02-.14-.01-.29,0-.43,0-.87-.02-1.34.35-1.37,1.27-.1,3.31-.56,6.61-.36,9.94.08,1.44.2,1.62,1.67,1.6,3.24-.05,6.48-.2,9.73-.26.9-.02,1.04-.52,1.08-1.25.08-1.65-.29-3.31.13-5.01ZM108.83,99.22h-.15c0,1.73.03,3.47-.01,5.2-.02.93.37,1.21,1.28,1.28,2.81.23,5.61.37,8.42.34,2.36-.03,2.35,0,2.25-2.46-.02-.36,0-.72.06-1.08.43-2.72-.17-5.46.2-8.18.11-.79-.29-1.21-1.12-1.22-3.25-.05-6.49-.04-9.73-.41-.8-.09-1.21.28-1.2,1.12.02,1.8,0,3.61,0,5.41ZM107.35,98.99h.18c0-1.66-.04-3.32.02-4.98.03-.87-.14-1.37-1.14-1.36-3.32.04-6.64.05-9.95.05-.69,0-1.07.25-1.09,1-.08,3.31-.17,6.63-.3,9.94-.04,1.13.41,1.49,1.53,1.49,3.17.01,6.35.1,9.52.25,1,.05,1.27-.29,1.25-1.21-.04-1.73-.01-3.46-.01-5.19ZM14.83,112.87h.03c0,1.73-.01,3.46,0,5.2.01,1.44.03,1.52,1.43,1.46,3.09-.13,6.19-.34,9.28-.52.14,0,.29-.04.43-.08.62-.15,1.01-.46,1.02-1.18,0-3.18.02-6.35.04-9.53,0-.77-.28-1.21-1.13-1.22-3.25-.07-6.48-.31-9.69-.85-.99-.17-1.46.23-1.43,1.3.06,1.8.02,3.61.02,5.41ZM133.53,99.64h.03c0-1.08,0-2.17,0-3.25q.01-3.29-3.27-3.34c-2.16-.03-4.33-.09-6.5-.11-.84,0-1.59.11-1.59,1.26.01,3.61.01,7.21-.02,10.82,0,.83.39,1.18,1.14,1.25,2.95.29,5.91.32,8.86.14.91-.05,1.39-.55,1.36-1.57-.06-1.73-.02-3.47-.02-5.2ZM133.94,78.3c0-3.42.03-6.96-.01-10.5-.02-1.91-.1-1.9-1.99-1.87-2.97.04-5.89.77-8.87.68-.95-.03-1.27.39-1.27,1.29.01,3.26,0,6.52-.03,9.78,0,.71.24,1.09,1,1.06.72-.04,1.45-.03,2.17-.05,2.95-.09,5.91.01,9-.38ZM60.7,105.72v-.11c1.59,0,3.18.04,4.76-.01,1.6-.05,1.56-.09,1.62-1.74.09-2.68-.62-5.3-.47-7.98.09-1.71-.11-1.97-1.76-1.97-3.11,0-6.17-.4-9.25-.68-.84-.08-1.27.15-1.24.99.11,3.32-.29,6.63-.38,9.94-.03,1.14.46,1.57,1.53,1.57,1.73,0,3.46,0,5.19,0ZM80.44,99.31c-.06-1.66.27-3.32.16-4.98-.06-.9-.36-1.31-1.3-1.27-3.39.15-6.77.33-10.13.88-.86.14-1.19.53-1.24,1.42-.18,3.12.65,6.17.53,9.28-.02.6.37.89.99.87,3.32-.06,6.64-.12,9.96-.18.69-.01,1.04-.33,1.04-1.06-.02-1.66,0-3.32,0-4.98ZM93.46,113.05s0,0,0,0c0-1.66.05-3.32-.02-4.97-.05-1.43-.16-1.52-1.73-1.53-2.89-.03-5.77.02-8.66,0-.92-.01-1.29.31-1.29,1.25,0,3.38-.04,6.76-.1,10.14-.02.94.4,1.28,1.3,1.27,3.1-.02,6.2-.03,9.3-.02.97,0,1.22-.5,1.2-1.37-.04-1.59,0-3.17,0-4.76ZM68.39,92.55c3.52-.5,6.96-.87,10.41-.85,1.14,0,1.31-.55,1.3-1.47,0-3.04-.03-6.08.09-9.11.05-1.16-.28-1.5-1.42-1.52-3.26-.06-6.5.41-9.75.23-.78-.04-1.21.45-1.22,1.21-.04,3.82-.17,7.64.59,11.51ZM1.44,99.33h-.11c0,1.37,0,2.74,0,4.11,0,1.84.02,1.86,1.75,1.84,1.73-.02,3.46-.05,5.19-.05,1.45,0,2.87-.19,4.29-.45.6-.11.91-.35.91-.97.01-3.25.03-6.49.04-9.74,0-.67-.26-1.1-1.02-1.07-3.3.13-6.6.27-9.9.37-1,.03-1.17.59-1.16,1.41.02,1.51,0,3.03,0,4.54ZM87.66,91.85v-.19c1.74,0,3.47-.01,5.2,0,.81,0,1.15-.33,1.18-1.16.1-3.1.21-6.21.39-9.31.06-1.01-.35-1.17-1.24-1.22-3.39-.18-6.79.22-10.18-.18-1.14-.13-1.29.62-1.3,1.5-.02,3.11-.03,6.21-.07,9.32-.01.91.28,1.3,1.26,1.25,1.58-.07,3.17-.02,4.76-.02ZM133.62,59.33c.25-1.51.25-3.1.17-4.69-.03-.66-.15-1.29-1.02-1.42-3.22-.46-6.47-.44-9.71-.57-.63-.03-.9.3-.96.9-.06.57-.32,1.17-.22,1.71.51,2.9-.15,5.77-.14,8.65,0,1.78-.03,1.88,1.78,1.73,3.09-.26,6.15-.87,9.27-.93.67-.01.85-.37.84-.97-.02-1.45,0-2.89,0-4.41ZM133.91,79.59c-2.19-.06-4.04.52-5.92.26-1.74-.24-3.46.18-5.19.08-.7-.04-1.11.23-1.07.99.15,3.17-.26,6.35.33,9.51.16.87.46,1.26,1.36,1.27,3.11.02,6.21.07,9.32.14.81.02,1.18-.22,1.18-1.09-.02-3.67-.01-7.35-.01-11.16ZM54.81,85.94h-.08c0,1.59.03,3.18-.01,4.77-.03,1.03.42,1.43,1.43,1.39.87-.03,1.78-.13,2.6.09,2.36.62,4.76.18,7.12.45.87.1,1.15-.36,1.04-1.18-.47-3.37-.54-6.77-.46-10.17.01-.49-.09-.88-.64-.93-1.22-.1-2.45-.32-3.66-.21-1.96.18-3.89.17-5.84.01-1.33-.1-1.44,0-1.48,1.43-.03,1.45,0,2.89,0,4.34ZM87.65,105.2v-.05c1.59,0,3.18-.02,4.77,0,.83.02,1.17-.33,1.13-1.16-.11-2.03.19-4.04.32-6.05.08-1.3.03-2.6.07-3.9.02-.74-.28-1.03-1.02-1.02-3.25.04-6.5.06-9.75.05-.87,0-1.06.41-1.08,1.2-.09,3.17.18,6.34-.2,9.5-.16,1.33-.04,1.37,1.43,1.41,1.44.03,2.89,0,4.33,0ZM120.52,113.48s0,0,0,0c0-1.59-.02-3.18,0-4.77.02-.85-.19-1.43-1.17-1.4-3.04.13-6.06-.23-9.08-.41-1.14-.07-1.55.37-1.48,1.49.21,3.38.59,6.76.49,10.15-.03.91.53,1.06,1.26,1.05,2.89-.05,5.78-.11,8.67-.11,1.07,0,1.36-.49,1.32-1.47-.05-1.51-.01-3.03-.01-4.55ZM87.3,67.04c-1.16,0-2.32.02-3.47,0-1.91-.04-1.87-.05-1.75,1.96.06,1.01-.03,2.02-.07,3.03-.06,1.66-.09,3.33-.22,4.98-.07.96.29,1.17,1.2,1.28,3.25.37,6.51-.19,9.75.24,1.08.15,1.53-.31,1.66-1.43.33-2.96-.18-5.93.12-8.89.08-.82-.56-.86-1.15-.96-2.01-.33-4.04-.24-6.07-.22ZM74.18,67.34v.08c-1.74,0-3.47-.04-5.2.01-1.57.04-1.62.09-1.52,1.61.12,1.94.34,3.88.46,5.83.06.94.11,1.87.27,2.8.12.68.37,1.02,1.1,1,3.39-.13,6.78-.24,10.17-.34.61-.02.93-.29.94-.92.05-2.89.11-5.78.18-8.67.03-1.16-.59-1.44-1.64-1.4-1.59.06-3.18.02-4.77.02ZM40.82,101.8c.18-2.19-.62-4.55-.08-6.94.21-.95-.47-1.17-1.15-1.09-2.04.24-3.99-.41-5.99-.5-1-.04-2.02.05-3.02.09-.84.03-1.16.36-1.27,1.32-.35,3.16-.02,6.34-.47,9.5-.19,1.33.02,1.49,1.41,1.46,2.45-.04,4.89-.18,7.34-.25,3.24-.09,3.24-.07,3.22-3.59ZM28.87,114.35c0,.68,0,1.18,0,1.69.02,3.01.2,3.17,3.19,2.85.29-.03.57-.14.86-.14,2.15-.03,4.28-.79,6.46-.16.74.22,1.1-.16.97-.93-.26-1.52-.02-3.03.06-4.54.09-1.66.08-3.33.19-4.99.06-1-.21-1.48-1.3-1.44-3.18.11-6.36.18-9.53.23-.83.01-1.02.47-.88,1.11.45,2.17-.2,4.33,0,6.32ZM128.14,119.48v.05c1.37,0,2.75.04,4.12-.01,1.68-.06,1.88-.27,1.59-1.96-.19-1.15-.29-2.29-.31-3.45-.03-1.73-.05-3.47-.04-5.2,0-.8-.31-1.16-1.16-1.15-2.96.02-5.93,0-8.89-.05-.93-.02-1.18.37-1.33,1.26-.54,3.03.15,6.04.06,9.05-.03,1.16.59,1.49,1.63,1.47,1.44-.03,2.89,0,4.34,0ZM52.59,112.83h0c0-1.74-.01-3.48,0-5.22,0-.68-.19-1.06-.96-1.11-2.82-.2-5.63-.34-8.45-.06-.8.08-1.2.4-1.22,1.18-.08,3.33-.13,6.66-.22,9.99-.02.87.41,1.12,1.2,1.1,2.68-.04,5.34-.14,8.01.38,1.42.27,1.62-.04,1.64-1.48.02-1.59,0-3.19,0-4.78ZM1.91,86.21h-.18c0,1.52.04,3.04-.01,4.56-.04,1.04.38,1.43,1.4,1.37,2.96-.16,5.92-.31,8.88-.41,1.13-.04,1.5-.55,1.48-1.63-.06-3.04-.52-6.06-.36-9.1.04-.76-.37-1.08-1.07-.92-2.87.67-5.75.35-8.63.19-1.36-.08-1.45-.05-1.49,1.37-.04,1.52,0,3.04,0,4.56ZM41.88,99.54s.03,0,.05,0c.08,1.51.17,3.02.23,4.53.03.65.11,1.12.96,1.03,2.8-.29,5.61-.27,8.41.07.8.09,1.19-.2,1.18-1.07-.02-3.17.45-6.33.33-9.5-.06-1.53-.05-1.58-1.61-1.46-2.87.22-5.74.54-8.61.75-.81.06-.94.47-.93,1.12.01,1.51,0,3.03,0,4.54Z"/>
        <path class="cls-5" d="M38.16,41.45c-3.61.1-7.23-.01-10.84-.16-.51-.02-1.01-.03-1.52-.09-2.28-.25-2.21-.26-2.39-2.51-.27-3.32-.34-6.64-.45-9.96-.06-1.86.09-2.1,2.03-2.15,2.53-.08,5.06-.06,7.59-.08.51,0,1.01.04,1.52.03,2.28-.04,2.51-.19,2.38-2.48-.39-6.79-.53-13.58-.36-20.38,0-.29-.02-.58-.02-.87.04-2.22.45-2.7,2.65-2.75,3.32-.07,6.65-.06,9.97-.05,1.68,0,1.7.04,1.73,1.67.06,3.62-.1,7.24.16,10.84.66,9.1.19,18.22.37,27.32.03,1.52-.1,1.61-1.55,1.61-3.76-.02-7.52,0-11.27,0ZM30.62,27.87v.05c-1.74,0-3.47,0-5.21,0-.65,0-1.15.16-1.13.95.1,3.4.21,6.79.31,10.19.02.73.42.98,1.11,1,3.25.07,6.49.38,9.75.29,1.06-.03,1.57-.27,1.5-1.48-.18-3.32-.27-6.64-.35-9.97-.02-.89-.42-1.07-1.21-1.05-1.59.05-3.18.01-4.77.01ZM49.69,33.77h-.02c0-1.74-.04-3.48.01-5.22.03-1.01-.33-1.45-1.38-1.42-3.11.09-6.23.14-9.34.17-.84,0-1.16.36-1.12,1.18.16,3.54.3,7.09.45,10.63.03.72.41.99,1.12.98,3.04-.02,6.08-.05,9.12,0,1.03.02,1.19-.48,1.17-1.33-.04-1.67-.01-3.33-.01-5ZM43.68,26.11v-.1c1.66,0,3.32-.02,4.98,0,.72.01,1.07-.27,1.05-1.01-.08-3.1-.15-6.21-.24-9.31-.03-.91-.36-1.42-1.44-1.42-3.03,0-6.06-.14-9.09-.16-1.51-.01-1.52.06-1.56,1.63-.08,3.1.4,6.2.15,9.3-.08.93.41,1.08,1.17,1.07,1.66-.03,3.32,0,4.98,0ZM49.25,7.4h-.03c0-1.59-.02-3.18,0-4.77.01-.84-.18-1.38-1.19-1.36-3.11.06-6.21.08-9.32.12-.74,0-1.26.3-1.27,1.14-.03,3.11-.06,6.21-.1,9.32-.01.82.38,1.13,1.2,1.13,3.11,0,6.22.01,9.32.11,1.24.04,1.44-.53,1.39-1.57-.06-1.37-.02-2.75-.02-4.12Z"/>
        <path class="cls-4" d="M101.38,119.61c-1.81,0-3.62-.01-5.43,0-.8,0-1.24-.27-1.13-1.13.02-.14,0-.29,0-.43-.02-3.39.37-6.77.05-10.17-.15-1.63.04-1.64,1.72-1.57,3.11.12,6.22.23,9.33.27,1.09.01,1.54.38,1.57,1.5.09,3.32.29,6.64.4,9.96.05,1.56-.01,1.61-1.52,1.64-1.66.03-3.33,0-4.99,0v-.07Z"/>
        <path class="cls-2" d="M13.49,112.9c0,1.66-.01,3.32,0,4.98.01.99-.26,1.58-1.41,1.75-2.94.43-5.86.63-8.81.11-1.01-.18-1.49-.55-1.61-1.62-.4-3.52-.3-7.06-.34-10.59,0-.77.43-.98,1.1-.98,1.37,0,2.74-.05,4.11-.05,1.8,0,3.59.05,5.39-.32,1.31-.27,1.51-.05,1.54,1.31.04,1.81,0,3.61,0,5.41,0,0,0,0,0,0Z"/>
        <path class="cls-1" d="M53.96,106.73c3.94.25,7.61.39,11.27-.03,1.53-.18,1.77.02,1.78,1.57.03,3.32-.63,6.61-.41,9.93.05.75-.38,1-1.06,1.03-3.45.12-6.91.43-10.35-.14-.73-.12-1.23-.35-1.23-1.18,0-3.67,0-7.34,0-11.17Z"/>
        <path class="cls-1" d="M80.51,112.89c-.42,1.71-.05,3.36-.13,5.01-.04.73-.18,1.23-1.08,1.25-3.24.07-6.48.22-9.73.26-1.47.02-1.59-.16-1.67-1.6-.19-3.32.26-6.62.36-9.94.03-.91.5-1.29,1.37-1.27.14,0,.29-.01.43,0,2.88.25,5.75.15,8.63.02,1.82-.08,1.82.02,1.82,1.76,0,1.51,0,3.03,0,4.49Z"/>
        <path class="cls-4" d="M108.83,99.22c0-1.8.01-3.61,0-5.41,0-.84.4-1.21,1.2-1.12,3.23.37,6.48.36,9.73.41.83.01,1.23.44,1.12,1.22-.37,2.72.23,5.46-.2,8.18-.06.35-.07.72-.06,1.08.1,2.46.11,2.43-2.25,2.46-2.81.03-5.62-.11-8.42-.34-.91-.07-1.3-.35-1.28-1.28.04-1.73.01-3.47.01-5.2h.15Z"/>
        <path class="cls-4" d="M107.35,98.99c0,1.73-.03,3.46.01,5.19.02.91-.26,1.25-1.25,1.21-3.17-.15-6.34-.23-9.52-.25-1.12,0-1.57-.36-1.53-1.49.13-3.31.21-6.63.3-9.94.02-.75.4-1,1.09-1,3.32,0,6.64-.01,9.95-.05,1.01-.01,1.17.49,1.14,1.36-.06,1.66-.02,3.32-.02,4.98h-.18Z"/>
        <path class="cls-2" d="M14.83,112.87c0-1.8.04-3.61-.02-5.41-.03-1.07.44-1.47,1.43-1.3,3.21.54,6.44.78,9.69.85.85.02,1.14.45,1.13,1.22-.02,3.18-.04,6.35-.04,9.53,0,.71-.4,1.03-1.02,1.18-.14.03-.28.07-.43.08-3.09.18-6.19.39-9.28.52-1.41.06-1.42-.02-1.43-1.46-.01-1.73,0-3.47,0-5.2h-.03Z"/>
        <path class="cls-2" d="M133.53,99.64c0,1.73-.04,3.47.02,5.2.03,1.01-.45,1.51-1.36,1.57-2.95.18-5.91.14-8.86-.14-.75-.07-1.15-.42-1.14-1.25.03-3.61.03-7.21.02-10.82,0-1.14.75-1.27,1.59-1.26,2.17.02,4.33.08,6.5.11q3.29.05,3.27,3.34c0,1.08,0,2.17,0,3.25h-.03Z"/>
        <path class="cls-4" d="M133.94,78.3c-3.09.39-6.05.3-9,.38-.72.02-1.45.02-2.17.05-.76.04-1.01-.34-1-1.06.03-3.26.04-6.52.03-9.78,0-.9.32-1.32,1.27-1.29,2.98.09,5.9-.64,8.87-.68,1.89-.03,1.97-.04,1.99,1.87.04,3.54.01,7.08.01,10.5Z"/>
        <path class="cls-4" d="M60.7,105.72c-1.73,0-3.46,0-5.19,0-1.06,0-1.56-.43-1.53-1.57.09-3.32.49-6.62.38-9.94-.03-.85.4-1.07,1.24-.99,3.08.28,6.14.69,9.25.68,1.65,0,1.85.27,1.76,1.97-.15,2.69.56,5.31.47,7.98-.06,1.65-.02,1.69-1.62,1.74-1.59.05-3.17.01-4.76.01v.11Z"/>
        <path class="cls-3" d="M80.44,99.31c0,1.66-.01,3.32,0,4.98,0,.73-.34,1.05-1.04,1.06-3.32.06-6.64.11-9.96.18-.62.01-1.01-.28-.99-.87.12-3.11-.71-6.17-.53-9.28.05-.89.38-1.28,1.24-1.42,3.36-.56,6.74-.73,10.13-.88.94-.04,1.24.37,1.3,1.27.11,1.66-.22,3.32-.16,4.98Z"/>
        <path class="cls-1" d="M93.46,113.05c0,1.59-.03,3.17,0,4.76.02.87-.23,1.37-1.2,1.37-3.1-.01-6.2,0-9.3.02-.89,0-1.31-.33-1.3-1.27.06-3.38.1-6.76.1-10.14,0-.94.37-1.26,1.29-1.25,2.89.03,5.77-.02,8.66,0,1.56.02,1.68.1,1.73,1.53.07,1.66.02,3.32.02,4.97,0,0,0,0,0,0Z"/>
        <path class="cls-4" d="M68.39,92.55c-.75-3.87-.63-7.69-.59-11.51,0-.76.44-1.25,1.22-1.21,3.26.18,6.5-.29,9.75-.23,1.14.02,1.47.36,1.42,1.52-.12,3.03-.09,6.07-.09,9.11,0,.93-.17,1.48-1.3,1.47-3.46-.03-6.89.35-10.41.85Z"/>
        <path class="cls-2" d="M1.44,99.33c0-1.51.02-3.03,0-4.54-.01-.82.15-1.38,1.16-1.41,3.3-.09,6.6-.24,9.9-.37.76-.03,1.03.4,1.02,1.07,0,3.25-.03,6.49-.04,9.74,0,.61-.31.86-.91.97-1.42.26-2.84.45-4.29.45-1.73,0-3.46.03-5.19.05-1.73.02-1.75,0-1.75-1.84,0-1.37,0-2.74,0-4.11h.11Z"/>
        <path class="cls-3" d="M87.66,91.85c-1.59,0-3.18-.05-4.76.02-.98.05-1.27-.35-1.26-1.25.05-3.11.05-6.21.07-9.32,0-.88.16-1.64,1.3-1.5,3.39.4,6.79,0,10.18.18.88.05,1.3.2,1.24,1.22-.18,3.1-.29,6.2-.39,9.31-.03.83-.37,1.17-1.18,1.16-1.73-.02-3.47,0-5.2,0v.19Z"/>
        <path class="cls-4" d="M133.62,59.33c0,1.52-.01,2.97,0,4.41,0,.6-.17.96-.84.97-3.12.05-6.18.66-9.27.93-1.81.15-1.77.05-1.78-1.73,0-2.88.65-5.75.14-8.65-.09-.54.16-1.13.22-1.71.06-.6.32-.93.96-.9,3.24.13,6.49.11,9.71.57.87.12.98.76,1.02,1.42.08,1.59.08,3.18-.17,4.69Z"/>
        <path class="cls-4" d="M133.91,79.59c0,3.82-.01,7.49.01,11.16,0,.86-.37,1.11-1.18,1.09-3.1-.08-6.21-.12-9.32-.14-.9,0-1.2-.4-1.36-1.27-.59-3.16-.18-6.34-.33-9.51-.04-.76.37-1.03,1.07-.99,1.73.1,3.45-.32,5.19-.08,1.88.26,3.73-.32,5.92-.26Z"/>
        <path class="cls-4" d="M54.81,85.94c0-1.45-.03-2.9,0-4.34.03-1.43.14-1.53,1.48-1.43,1.95.15,3.89.16,5.84-.01,1.2-.11,2.44.11,3.66.21.55.05.65.44.64.93-.08,3.4-.01,6.79.46,10.17.11.82-.17,1.28-1.04,1.18-2.36-.27-4.76.17-7.12-.45-.82-.22-1.73-.13-2.6-.09-1.01.04-1.45-.35-1.43-1.39.04-1.59.01-3.18.01-4.77h.08Z"/>
        <path class="cls-3" d="M87.65,105.2c-1.45,0-2.89.03-4.33,0-1.48-.04-1.6-.08-1.43-1.41.39-3.17.11-6.34.2-9.5.02-.79.22-1.2,1.08-1.2,3.25,0,6.5-.01,9.75-.05.74,0,1.04.28,1.02,1.02-.04,1.3.01,2.6-.07,3.9-.13,2.01-.43,4.02-.32,6.05.05.83-.3,1.17-1.13,1.16-1.59-.03-3.18,0-4.77,0v.05Z"/>
        <path class="cls-2" d="M120.52,113.48c0,1.52-.04,3.03.01,4.55.04.98-.26,1.47-1.32,1.47-2.89,0-5.78.06-8.67.11-.73.01-1.29-.14-1.26-1.05.11-3.4-.27-6.77-.49-10.15-.07-1.12.34-1.56,1.48-1.49,3.03.18,6.04.53,9.08.41.98-.04,1.19.55,1.17,1.4-.03,1.59,0,3.18,0,4.77,0,0,0,0,0,0Z"/>
        <path class="cls-3" d="M87.3,67.04c2.02-.02,4.05-.11,6.07.22.58.1,1.23.14,1.15.96-.3,2.96.22,5.92-.12,8.89-.13,1.12-.58,1.57-1.66,1.43-3.24-.43-6.5.12-9.75-.24-.91-.1-1.28-.32-1.2-1.28.13-1.66.16-3.32.22-4.98.04-1.01.13-2.03.07-3.03-.12-2.01-.16-2,1.75-1.96,1.16.02,2.32,0,3.47,0Z"/>
        <path class="cls-4" d="M74.18,67.34c1.59,0,3.18.05,4.77-.02,1.05-.04,1.67.24,1.64,1.4-.07,2.89-.13,5.78-.18,8.67-.01.63-.33.9-.94.92-3.39.11-6.78.22-10.17.34-.73.03-.98-.31-1.1-1-.17-.93-.22-1.86-.27-2.8-.12-1.95-.34-3.88-.46-5.83-.09-1.52-.05-1.56,1.52-1.61,1.73-.05,3.47-.01,5.2-.01v-.08Z"/>
        <path class="cls-3" d="M40.82,101.8c.02,3.51.02,3.5-3.22,3.59-2.45.07-4.89.2-7.34.25-1.39.02-1.6-.13-1.41-1.46.45-3.16.12-6.34.47-9.5.1-.95.42-1.28,1.27-1.32,1.01-.04,2.02-.13,3.02-.09,2,.09,3.95.73,5.99.5.68-.08,1.36.15,1.15,1.09-.54,2.38.25,4.74.08,6.94Z"/>
        <path class="cls-3" d="M28.87,114.35c-.2-1.99.46-4.15,0-6.32-.13-.64.06-1.1.88-1.11,3.18-.05,6.36-.11,9.53-.23,1.09-.04,1.36.44,1.3,1.44-.11,1.66-.1,3.33-.19,4.99-.08,1.51-.32,3.02-.06,4.54.13.77-.22,1.15-.97.93-2.18-.63-4.31.12-6.46.16-.29,0-.57.11-.86.14-2.98.32-3.16.16-3.19-2.85,0-.51,0-1.01,0-1.69Z"/>
        <path class="cls-2" d="M128.14,119.48c-1.44,0-2.89-.03-4.34,0-1.04.02-1.67-.3-1.63-1.47.09-3.02-.6-6.02-.06-9.05.16-.88.41-1.27,1.33-1.26,2.96.05,5.93.07,8.89.05.85,0,1.16.35,1.16,1.15,0,1.74,0,3.47.04,5.2.02,1.15.12,2.3.31,3.45.29,1.69.09,1.89-1.59,1.96-1.37.05-2.75.01-4.12.01v-.05Z"/>
        <path class="cls-3" d="M52.59,112.83c0,1.59.02,3.19,0,4.78-.02,1.45-.23,1.76-1.64,1.48-2.66-.51-5.33-.42-8.01-.38-.78.01-1.22-.24-1.2-1.1.09-3.33.14-6.66.22-9.99.02-.78.42-1.1,1.22-1.18,2.82-.28,5.64-.14,8.45.06.78.05.97.43.96,1.11-.02,1.74,0,3.48,0,5.22h0Z"/>
        <path class="cls-2" d="M1.91,86.21c0-1.52-.03-3.04,0-4.56.04-1.42.13-1.45,1.49-1.37,2.88.16,5.76.48,8.63-.19.71-.17,1.12.16,1.07.92-.16,3.04.3,6.06.36,9.1.02,1.08-.35,1.59-1.48,1.63-2.96.1-5.92.24-8.88.41-1.02.06-1.44-.33-1.4-1.37.06-1.52.01-3.04.01-4.56h.18Z"/>
        <path class="cls-3" d="M41.88,99.54c0-1.51,0-3.03,0-4.54,0-.65.13-1.06.93-1.12,2.87-.21,5.74-.53,8.61-.75,1.57-.12,1.55-.07,1.61,1.46.13,3.18-.35,6.33-.33,9.5,0,.87-.39,1.17-1.18,1.07-2.8-.34-5.61-.36-8.41-.07-.84.09-.93-.39-.96-1.03-.06-1.51-.15-3.02-.23-4.53-.02,0-.04,0-.05,0Z"/>
        <path class="cls-4" d="M30.62,27.87c1.59,0,3.18.03,4.77-.01.79-.02,1.19.16,1.21,1.05.08,3.32.17,6.65.35,9.97.07,1.21-.45,1.45-1.5,1.48-3.26.09-6.5-.22-9.75-.29-.69-.02-1.09-.27-1.11-1-.1-3.4-.2-6.79-.31-10.19-.02-.8.48-.95,1.13-.95,1.73,0,3.47,0,5.21,0v-.05Z"/>
        <path class="cls-4" d="M49.69,33.77c0,1.67-.03,3.33.01,5,.02.85-.14,1.34-1.17,1.33-3.04-.05-6.08-.02-9.12,0-.71,0-1.09-.27-1.12-.98-.15-3.54-.29-7.09-.45-10.63-.04-.82.29-1.17,1.12-1.18,3.11-.03,6.23-.08,9.34-.17,1.04-.03,1.41.4,1.38,1.42-.05,1.74-.01,3.48-.01,5.22h.02Z"/>
        <path class="cls-4" d="M43.68,26.11c-1.66,0-3.32-.02-4.98,0-.77.01-1.25-.14-1.17-1.07.26-3.1-.22-6.2-.15-9.3.04-1.56.05-1.64,1.56-1.63,3.03.02,6.06.17,9.09.16,1.08,0,1.41.51,1.44,1.42.09,3.1.16,6.21.24,9.31.02.73-.33,1.02-1.05,1.01-1.66-.03-3.32,0-4.98,0v.1Z"/>
        <path class="cls-4" d="M49.25,7.4c0,1.37-.05,2.75.02,4.12.05,1.04-.16,1.61-1.39,1.57-3.11-.1-6.22-.11-9.32-.11-.82,0-1.21-.31-1.2-1.13.04-3.11.06-6.21.1-9.32,0-.84.53-1.13,1.27-1.14,3.11-.04,6.22-.06,9.32-.12,1.01-.02,1.2.52,1.19,1.36-.02,1.59,0,3.18,0,4.77h.03Z"/>
      </g>
    </g>
  </g>
</svg>