<?xml version="1.0" encoding="UTF-8"?>
<svg id="Layer_2" data-name="Layer 2" xmlns="http://www.w3.org/2000/svg" viewBox="0 0 135.54 55.11">
  <defs>
    <style>
      .cls-1 {
        fill: #fff;
      }

      .cls-2 {
        fill: #f8d967;
      }
    </style>
  </defs>
  <g id="objects">
    <g id="_07" data-name="07">
      <g>
        <path d="M135.54,48.02c.02.94-.22,1.9-.38,2.84-.26,1.56-.29,1.64-1.87,1.76-4.56.35-9.13.63-13.69.97-2.51.18-5,.45-7.51.61-1.58.1-3.17.21-4.75.08-3.49-.29-6.95,0-10.42.21-2.99.19-5.98.46-8.97.47-13.47.03-26.95,0-40.42-.07-2.81-.01-5.62-.41-8.44-.54-6.42-.27-12.83-.93-19.27-.47-2.76.19-5.52.46-8.29.72-.13.01-.26.03-.39.04l-.13-1.25c5.07-.61,10.16-1.05,15.27-1.06,2.55,0,5.1.17,7.66.27,2.33.09,4.66.19,6.99.31,2.72.14,5.45.44,8.17.44,12.72.01,25.46-.02,38.19-.12,3.34-.02,6.67-.38,10.02-.6,3.34-.22,6.67-.49,10.02-.21,1.22.1,2.47.06,3.69-.04,2.41-.18,4.82-.46,7.23-.64,2.28-.19,4.57-.3,6.86-.46,2.5-.19,5-.39,7.5-.59.34-.03.68-.11,1.17-.19.35-2.28.06-4.42,0-6.56-.05-1.54-.25-3.08-.21-4.61.19-6.64.46-13.29.33-19.94,0-.22.02-.44.01-.66-.04-2.81-.06-5.63-.13-8.45-.02-.61-.18-1.22-.32-1.81-.19-.81-.42-1.61-.67-2.39-.37-1.18-.81-2.25-2.01-2.93-1.49-.84-3.07-1.03-4.71-1.08-3.39-.1-6.78-.23-10.17-.23-6.92.01-13.83.07-20.75.19-3.21.05-6.42.36-9.63.39-8.15.07-16.29-.02-24.44.36-6.37.29-12.77.04-19.16.02-4.54-.01-9.08-.14-13.61-.06-3.77.07-7.53.21-11.29.34l-.04-1.15c1.99-.06,3.98-.15,5.97-.31,6.81-.55,13.64-.51,20.46-.27,6.31.23,12.6.21,18.89-.17,7.17-.44,14.35-.33,21.52-.42,3.3-.04,6.6-.25,9.89-.38,2.33-.09,4.66-.22,7-.25,7.61-.09,15.23-.26,22.85.11,1.67.07,3.34.12,5.01.23,1.89.12,3.54.97,4.84,2.2,1.01.94,1.71,2.22,1.75,3.79.18,8.67.33,17.34,0,26.01-.09,2.2-.15,4.41-.09,6.61.09,2.99.35,5.97.44,8.96Z"/>
        <path class="cls-2" d="M133.92,19.38c.12,6.65-.14,13.29-.33,19.94-.04,1.54.16,3.07.21,4.61.06,2.14.35,4.29,0,6.56-.49.08-.83.16-1.17.19-2.5.21-5,.41-7.5.59-2.29.16-4.57.27-6.86.46-2.41.19-4.82.47-7.23.64-1.22.09-2.47.14-3.69.04-3.36-.28-6.69-.01-10.02.21-3.34.22-6.68.57-10.02.6-12.73.11-25.46.14-38.19.12-2.72,0-5.45-.3-8.17-.44-2.33-.12-4.66-.21-6.99-.31-2.56-.11-5.11-.27-7.66-.27-5.11,0-10.2.45-15.27,1.06-1.16.13-2.34-.03-3.52-.09-.42-.02-.76-.07-1.21.11-.52.21-1.25-.09-1.82-.16-1.23-3.06-1.82-6.11-2.04-9.29-.49-7.04-.37-14.09-.49-21.13-.02-1.28-.11-2.55-.14-3.83-.02-.7.01-1.41.03-2.11.03-.93.07-1.84.12-2.77.07-1.76.14-3.51.24-5.27.07-1.37.71-2.55,1.44-3.63.38-.56,1.15-.94,1.82-1.19,1.67-.61,3.44-.67,5.21-.72,2.13-.07,4.27-.15,6.4-.22,3.76-.14,7.52-.28,11.29-.34,4.53-.09,9.07.04,13.61.06,6.39.03,12.79.27,19.16-.02,8.15-.38,16.29-.28,24.44-.36,3.21-.02,6.42-.34,9.63-.39,6.92-.11,13.83-.18,20.75-.19,3.39,0,6.77.12,10.17.23,1.63.05,3.22.24,4.71,1.08,1.2.68,1.64,1.75,2.01,2.93.25.79.47,1.59.67,2.39.14.59.31,1.21.32,1.81.07,2.82.09,5.64.13,8.45,0,.23-.01.44-.01.66ZM129.52,47.93c1.47,0,2-.63,1.7-2.05-.03-.12-.1-.24-.13-.37-.15-.69-.37-1.36-.44-2.06-.22-2.8-.42-5.61-.59-8.42-.12-1.97-.2-3.96-.27-5.94-.04-1.27-.07-2.54-.03-3.81.08-2.38.21-4.75.32-7.12.12-2.68.2-5.36.42-8.04.11-1.36.14-2.62-.85-3.68-.51.06-.92.15-1.33.15h-.04c-4.05-.06-8.1-.19-12.15-.22-9.24-.04-18.49-.03-27.74-.06-21.01-.07-42.02-.2-63.04-.24-3.61,0-7.21.27-10.82.45-1.84.09-3.69.41-5.52.35-.93-.03-1.44.31-1.84.93-.29.45-.42,1.05-.49,1.6-.19,1.53-.35,3.06-.44,4.59-.12,1.94-.25,3.88-.21,5.81.08,4.43.28,8.86.4,13.29.1,3.66.1,7.31.24,10.96.09,2.34.67,3.16,2.59,3.52.27.05.58.09.91.13.17.02.35.03.52.04,5.81.51,11.62.19,17.43-.06,4.62-.19,9.23-.55,13.86-.22,1.8.13,3.61.24,5.41.29,7.4.22,14.8.29,22.19.64,7.97.39,15.94.45,23.91.39,3.91-.03,7.83-.25,11.75-.4,4.31-.16,8.62-.41,12.93-.5,3.78-.08,7.57,0,11.35.02Z"/>
        <path d="M131.22,45.88c.3,1.42-.23,2.06-1.7,2.05-3.78-.01-7.57-.1-11.35-.02-4.31.09-8.62.34-12.93.5-3.92.15-7.84.37-11.75.4-7.97.06-15.94,0-23.91-.39-7.39-.36-14.79-.42-22.19-.64-1.8-.06-3.61-.16-5.41-.29-4.62-.33-9.24.03-13.86.22-5.81.24-11.62.56-17.43.06-.17-.01-.35-.03-.52-.04-.33-.04-.64-.08-.91-.13l.16-1.43c.34.04.66.08.99.08,3.66,0,7.31.02,10.96-.04,2.69-.05,5.37-.17,8.05-.34,3.87-.26,7.73-.56,11.61-.27,2.37.18,4.74.31,7.12.38,8.72.26,17.43.51,26.15.7,9.47.21,18.94.25,28.41-.23,5.54-.28,11.06-.86,16.62-.73,2.21.05,4.41.02,6.61,0,.61,0,1.21-.1,1.79-.15,0-1.36.09-2.59-.02-3.8-.2-2.32-.49-4.62-.51-6.96-.04-5.77.36-11.53.75-17.29.21-3.06.3-6.14.45-9.28l-.07-1.62c.41,0,.82-.09,1.33-.15.99,1.06.96,2.31.85,3.68-.22,2.67-.29,5.36-.42,8.04-.11,2.38-.24,4.75-.32,7.12-.04,1.27-.01,2.54.03,3.81.07,1.98.15,3.96.27,5.94.17,2.81.37,5.62.59,8.42.06.69.29,1.37.44,2.06.03.12.1.24.13.37Z"/>
        <path d="M128.31,6.6l.07,1.62c-2.6.11-4.96.27-7.33.28-2.42.01-4.84-.19-7.26-.19-5.64,0-11.27.04-16.91.09-4.58.04-9.17-.05-13.74.17-7.76.37-15.49-.28-23.24-.36-4.44-.04-8.9-.16-13.34-.01-7.21.24-14.42.69-21.64.98-4.05.17-8.1.18-12.15.29-1.31.04-2.61.18-4.03.28.09,1.31.26,2.44.25,3.57-.09,6.47-.19,12.94-.35,19.41-.11,4.44-.26,8.88.46,13.39.11.01.21.03.32.04l-.16,1.43c-1.92-.36-2.51-1.18-2.59-3.52-.14-3.65-.14-7.31-.24-10.96-.12-4.43-.32-8.86-.4-13.29-.04-1.93.09-3.87.21-5.81.09-1.53.25-3.07.44-4.59.07-.55.2-1.15.49-1.6.39-.62.91-.96,1.84-.93,1.83.06,3.68-.26,5.52-.35,3.61-.18,7.21-.46,10.82-.45,21.01.04,42.02.17,63.04.24,9.25.04,18.5.02,27.74.06,4.05.02,8.1.16,12.15.22h.04Z"/>
        <path class="cls-1" d="M128.38,8.22c-.15,3.14-.24,6.22-.45,9.28-.39,5.76-.79,11.51-.75,17.29.02,2.34.31,4.64.51,6.96.11,1.21.02,2.44.02,3.8-.59.05-1.19.14-1.79.15-2.2.01-4.4.04-6.61,0-5.56-.13-11.08.45-16.62.73-9.47.48-18.94.44-28.41.23-8.72-.19-17.43-.44-26.15-.7-2.37-.07-4.75-.2-7.12-.38-3.88-.29-7.74,0-11.61.27-2.67.18-5.36.29-8.05.34-3.65.06-7.3.04-10.96.04-.32,0-.65-.04-.99-.08-.11-.01-.21-.02-.32-.04-.72-4.51-.58-8.94-.46-13.39.16-6.47.26-12.94.35-19.41.01-1.13-.16-2.26-.25-3.57,1.42-.1,2.72-.24,4.03-.28,4.05-.11,8.1-.12,12.15-.29,7.21-.29,14.42-.74,21.64-.98,4.44-.14,8.9-.03,13.34.01,7.75.08,15.48.73,23.24.36,4.57-.22,9.16-.13,13.74-.17,5.63-.04,11.27-.09,16.91-.09,2.42,0,4.84.21,7.26.19,2.37-.01,4.73-.18,7.33-.28ZM112.74,43.02c.78-.02,1.22-.57,1.2-1.27-.02-.59-.32-.84-1.21-.86-3.42-.04-6.83-.59-10.27-.26-.35.03-.71.01-1.06-.02-.84-.08-.97-.21-.99-1.06-.03-1.72,0-3.44-.04-5.16-.05-3.17-.13-6.34-.18-9.51,0-.46.06-.92.09-1.29,2.12-.15,4.05-.29,5.97-.42,1.96-.14,3.96.12,5.88-.54.05-.45.09-.83.12-1.16-.41-.61-.96-.7-1.56-.66-2.54.18-5.09.33-7.63.52-.91.07-1.81.21-2.81.33-.1-1.97-.2-3.83-.31-5.8.51-.05.89-.12,1.27-.12,3.17.01,6.34.05,9.51.04.73,0,1.46-.15,2.24-.24.11-1.48-.11-1.77-1.23-1.85-.09,0-.17,0-.26,0-3.34.07-6.69.13-10.04.21-.43,0-.88.08-1.3.16-1.38.29-1.61.49-1.67,1.75,0,.08,0,.17,0,.26-.1,3.16-.24,6.33-.25,9.5-.02,4.79.03,9.59.06,14.39,0,.31.01.62.07.92.21.98,1.01,1.69,2,1.81.31.04.62.06.92.05,2.55-.02,5.09-.14,7.64.19,1.26.16,2.55.11,3.82.06ZM87.23,43.17c3.07-.85,6.61-3.49,5.35-8.45-.64-2.52-1.64-4.93-3.34-6.96-.59-.69-1.34-1.25-1.94-1.94-.91-1.05-1.98-1.84-3.23-2.46-1.26-.61-2.51-1.29-3.69-2.04-.96-.61-1.11-1.43-.51-2.39.32-.51.75-.99,1.23-1.36,1.21-.92,2.56-1.54,4.11-1.66,1.12-.09,2.25-.14,3.37-.21.03-.09.06-.19.09-.29-.32-.2-.63-.47-.99-.59-3.61-1.09-7.03.26-9.01,2.79-1.51,1.93-1.19,3.94.8,5.39.96.69,1.98,1.35,3.07,1.79,2.09.86,3.4,2.59,4.86,4.13,1.62,1.7,2.41,3.91,2.94,6.12.55,2.3.41,3.73-2.27,5.29-.66.39-1.45.61-2.21.78-1.39.33-2.78.42-4.04-.51-.31-.23-.71-.34-1.08-.49-.88-.34-1.41-.16-1.71.57-.29.7,0,1.27.84,1.63.32.14.69.18.97.38,1.07.74,2.26.98,3.51.87.96-.09,1.94-.14,2.86-.4ZM73.16,35.67c.02-3.08-.11-6.16-.19-9.24-.06-2.41-.12-4.83-.22-7.25-.03-.61-.16-1.23-.37-1.8-.25-.69-.94-.76-1.27-.09-.28.56-.44,1.24-.44,1.88.02,2.24.16,4.48.19,6.73.01,1.39-.11,2.78-.14,4.18-.01.66.01,1.32.05,1.98.05.78.19,1.56.18,2.34-.04,1.54-.16,3.07-.25,4.61-.1,1.62-1.32,2.72-2.96,2.74-1.38.01-2.61-.51-3.69-1.24-.7-.48-1.48-1.06-1.58-2.03-.23-2.27-.51-4.55-.58-6.83-.14-4.18-.14-8.36-.22-12.54-.02-1.09-.14-2.17-.21-3.38-1.07.22-1.19.83-1.26,1.45-.14,1.27-.32,2.54-.35,3.81-.08,3.34-.13,6.69-.1,10.04.02,2.16.12,4.31.37,6.45.12,1.01.47,2.14,1.08,2.93,1.71,2.2,4.08,3.29,6.87,3.37,2.03.06,4.26-1.68,4.62-3.66.26-1.46.47-2.96.47-4.44ZM53.55,43.69c1.24-.34,1.52-.64,1.42-1.73-.08-.87-.33-1.73-.44-2.59-.64-5.28-1.27-10.56-1.9-15.84-.25-2.11-.7-4.16-1.61-6.09-1.04-2.19-3.04-3.43-5.26-3.15-.67.08-1.29.57-1.96.68-1.14.19-1.35.92-1.44,1.87-.52,5.16-1.08,10.31-1.62,15.46-.31,3.02-.62,6.04-.9,9.06-.04.47.03.96.15,1.42.07.26.35.62.54.62.29,0,.73-.19.86-.43.22-.41.31-.91.35-1.38.14-1.89.22-3.77.38-5.66.13-1.44.36-2.86.55-4.36.4.04.71,0,.99.09,2.19.68,4.44.39,6.67.32,1.14-.03,1.17-.03,1.29,1.11.26,2.36.46,4.73.79,7.08.16,1.19.17,2.47,1.13,3.51ZM37.8,21.16c.13-2.47-1.12-4.16-3.12-5.41-1.85-1.16-3.91-1.62-6.02-1.77-2.67-.19-5.37-.18-8.05-.26-.3,0-.66.08-.9-.04-1.09-.56-1.92.23-2.96.29.11.34.12.56.23.66.96.79.82,1.84.72,2.89-.13,1.31-.34,2.62-.41,3.94-.33,6.38-.58,12.76-.29,19.15.04.86.24,1.64.78,2.29,1.37-.15,1.59-.41,1.55-1.74-.09-2.77-.17-5.54-.24-8.31-.01-.47.04-.94.06-1.44,1.06-.31,2.06-.51,2.99-.88,1.56-.64,3.21-.88,4.83-1.28,1.78-.44,3.55-1.03,5.22-1.78,1.22-.55,2.34-1.41,3.4-2.26,1.27-1.02,2.11-2.36,2.2-4.06Z"/>
        <path d="M113.94,41.75c.02.7-.42,1.26-1.2,1.27-1.27.04-2.56.1-3.82-.06-2.55-.33-5.09-.21-7.64-.19-.31,0-.62,0-.92-.05-.99-.12-1.79-.84-2-1.81-.06-.29-.07-.61-.07-.92-.03-4.8-.09-9.6-.06-14.39.01-3.17.15-6.34.25-9.5,0-.09,0-.18,0-.26l1.48.04c.11,1.97.21,3.83.31,5.8.99-.12,1.89-.26,2.81-.33,2.54-.19,5.09-.34,7.63-.52.6-.04,1.14.06,1.56.66-.04.33-.07.71-.12,1.16-1.92.66-3.92.41-5.88.54-1.92.13-3.86.27-5.97.42-.02.37-.09.83-.09,1.29.05,3.17.13,6.34.18,9.51.03,1.72,0,3.44.04,5.16.02.86.16.98.99,1.06.35.03.71.05,1.06.02,3.44-.33,6.84.22,10.27.26.89.01,1.19.27,1.21.86Z"/>
        <path d="M111.74,13.7c1.11.08,1.34.38,1.23,1.85-.77.09-1.51.24-2.24.24-3.17,0-6.34-.03-9.51-.04-.38,0-.76.07-1.27.12l-1.48-.04c.06-1.26.29-1.46,1.67-1.75.43-.09.87-.16,1.3-.16,3.34-.08,6.69-.14,10.04-.21.09,0,.17,0,.26,0Z"/>
        <path d="M92.58,34.72c1.26,4.96-2.28,7.6-5.35,8.45-.92.26-1.9.31-2.86.4-1.26.11-2.44-.12-3.51-.87-.28-.19-.66-.24-.97-.38-.84-.36-1.12-.93-.84-1.63.29-.73.83-.91,1.71-.57.37.14.77.26,1.08.49,1.26.93,2.65.84,4.04.51.76-.18,1.54-.39,2.21-.78,2.68-1.56,2.82-2.99,2.27-5.29-.52-2.21-1.32-4.42-2.94-6.12-1.46-1.54-2.77-3.28-4.86-4.13-1.09-.44-2.11-1.1-3.07-1.79-1.99-1.44-2.31-3.46-.8-5.39,1.98-2.53,5.4-3.88,9.01-2.79.36.11.66.39.99.59-.03.1-.06.2-.09.29-1.12.07-2.25.12-3.37.21-1.54.11-2.9.74-4.11,1.66-.48.36-.91.84-1.23,1.36-.61.96-.45,1.78.51,2.39,1.18.75,2.42,1.43,3.69,2.04,1.24.61,2.32,1.41,3.23,2.46.6.69,1.35,1.25,1.94,1.94,1.71,2.03,2.7,4.44,3.34,6.96Z"/>
        <path d="M72.98,26.43c.08,3.08.21,6.16.19,9.24,0,1.48-.21,2.98-.47,4.44-.36,1.98-2.59,3.72-4.62,3.66-2.79-.08-5.16-1.17-6.87-3.37-.61-.79-.96-1.91-1.08-2.93-.26-2.14-.36-4.29-.37-6.45-.03-3.34.02-6.69.1-10.04.03-1.27.21-2.54.35-3.81.07-.62.19-1.23,1.26-1.45.07,1.21.19,2.29.21,3.38.08,4.18.08,8.36.22,12.54.07,2.28.35,4.56.58,6.83.1.96.88,1.55,1.58,2.03,1.09.73,2.31,1.26,3.69,1.24,1.63-.02,2.86-1.12,2.96-2.74.09-1.54.21-3.08.25-4.61.01-.78-.13-1.56-.18-2.34-.04-.66-.06-1.32-.05-1.98.04-1.39.16-2.79.14-4.18-.03-2.24-.17-4.48-.19-6.73,0-.63.16-1.32.44-1.88.33-.67,1.02-.6,1.27.09.21.57.34,1.19.37,1.8.11,2.42.16,4.84.22,7.25Z"/>
        <path d="M54.98,41.96c.1,1.09-.18,1.39-1.42,1.73-.96-1.04-.97-2.32-1.13-3.51-.33-2.36-.53-4.73-.79-7.08-.12-1.14-.16-1.14-1.29-1.11-2.23.06-4.47.35-6.67-.32-.28-.09-.59-.06-.99-.09-.19,1.5-.42,2.93-.55,4.36-.16,1.88-.24,3.77-.38,5.66-.04.47-.13.98-.35,1.38-.13.24-.57.43-.86.43-.19,0-.47-.37-.54-.62-.12-.46-.19-.95-.15-1.42.27-3.02.59-6.04.9-9.06.54-5.15,1.09-10.31,1.62-15.46.09-.95.31-1.68,1.44-1.87.67-.11,1.29-.59,1.96-.68,2.22-.27,4.21.96,5.26,3.15.91,1.93,1.36,3.99,1.61,6.09.62,5.28,1.26,10.56,1.9,15.84.11.87.36,1.72.44,2.59ZM51.13,29.67c0-.47.02-.74,0-.99-.22-2.01-.37-4.03-.72-6.01-.27-1.55-.7-3.09-1.23-4.56-.59-1.62-1.89-2.36-3.62-2.33-1.18.02-1.54.39-1.59,1.57-.05,1.14-.11,2.28-.2,3.42-.24,2.97-.51,5.94-.77,8.97,2.68.55,5.36.21,8.14-.06Z"/>
        <path class="cls-1" d="M51.13,28.68c.03.26,0,.52,0,.99-2.79.27-5.46.61-8.14.06.26-3.03.52-6,.77-8.97.09-1.14.15-2.28.2-3.42.05-1.18.41-1.55,1.59-1.57,1.72-.02,3.02.71,3.62,2.33.53,1.48.96,3.01,1.23,4.56.35,1.99.5,4.01.72,6.01Z"/>
        <path d="M34.68,15.75c2.01,1.25,3.26,2.93,3.12,5.41-.09,1.69-.92,3.04-2.2,4.06-1.06.85-2.17,1.71-3.4,2.26-1.67.75-3.44,1.33-5.22,1.78-1.62.4-3.27.64-4.83,1.28-.93.38-1.93.57-2.99.88-.02.49-.07.96-.06,1.44.08,2.77.16,5.54.24,8.31.04,1.33-.18,1.59-1.55,1.74-.54-.66-.74-1.44-.78-2.29-.29-6.39-.04-12.77.29-19.15.07-1.31.27-2.62.41-3.94.11-1.04.24-2.09-.72-2.89-.11-.09-.12-.32-.23-.66,1.03-.06,1.87-.85,2.96-.29.24.12.6.04.9.04,2.68.08,5.37.07,8.05.26,2.11.15,4.17.61,6.02,1.77ZM34.48,23.47c2-1.76,1.74-4.38-.54-5.76-1.03-.63-2.21-1.1-3.39-1.39-3.4-.85-6.91-.64-10.37-.78-.12,0-.24.07-.47.13-.07,4.47-.7,8.84-.31,13.41.81-.23,1.52-.42,2.23-.61,1.52-.41,3.06-.79,4.57-1.23,1.56-.44,3.17-.76,4.65-1.41,1.31-.57,2.56-1.41,3.62-2.36Z"/>
        <path class="cls-1" d="M33.94,17.7c2.28,1.38,2.54,4,.54,5.76-1.07.95-2.32,1.78-3.62,2.36-1.47.66-3.09.97-4.65,1.41-1.52.43-3.05.82-4.57,1.23-.71.19-1.42.39-2.23.61-.39-4.57.24-8.94.31-13.41.22-.06.34-.13.47-.13,3.47.13,6.97-.07,10.37.78,1.17.29,2.36.76,3.39,1.39Z"/>
        <path d="M17,1.92l.04,1.15c-2.13.07-4.27.16-6.4.22-1.76.05-3.54.11-5.21.72-.67.25-1.44.64-1.82,1.19-.72,1.08-1.37,2.26-1.44,3.63-.09,1.76-.16,3.52-.24,5.27-.04.93-.09,1.84-.12,2.77-.02.7-.05,1.41-.03,2.11.03,1.28.11,2.55.14,3.83.12,7.04,0,14.09.49,21.13.22,3.18.81,6.23,2.04,9.29.57.07,1.3.37,1.82.16.46-.18.79-.12,1.21-.11,1.18.06,2.36.23,3.52.09l.13,1.25c-1.43.15-2.86.42-4.29.43-1.16,0-2.4.28-3.52-.54-.91-.67-1.48-1.44-1.71-2.54-.46-2.21-.57-4.44-.8-6.67-.71-7.16-.37-14.35-.46-21.53C.23,18.78.05,13.76,0,8.74c-.01-1.25.2-2.58.67-3.73.54-1.32,1.51-2.26,3.19-2.44,4.37-.48,8.76-.52,13.14-.66Z"/>
      </g>
    </g>
  </g>
</svg>