<?xml version="1.0" encoding="UTF-8"?>
<svg id="Layer_2" data-name="Layer 2" xmlns="http://www.w3.org/2000/svg" viewBox="0 0 128.2 86.46">
  <defs>
    <style>
      .cls-1 {
        fill: #c5c5c5;
      }

      .cls-1, .cls-2, .cls-3 {
        fill-rule: evenodd;
      }

      .cls-2 {
        fill: #1b1a1a;
      }

      .cls-3 {
        fill: #bababd;
      }
    </style>
  </defs>
  <g id="objects">
    <g id="_04" data-name="04">
      <g>
        <path class="cls-2" d="M65.84,86.19c-4.88-.27-9.22-.45-13.54-.76-5.02-.36-8.76-4.49-8.73-9.54.05-6.44.14-12.87-.26-19.31-.11-1.74.11-3.47.34-5.19.19-1.38.66-2.66,1.34-3.87.76-1.36,1.86-2.12,3.49-2.16,1.96-.04,3.9.21,5.85.23,5.85.06,11.71-.03,17.57.02,2.45.02,4.89-.46,7.36-.03,2.54.44,4.32,2.04,4.9,4.54.38,1.64.34,3.3.36,4.97.08,6.08.02,12.15-.35,18.22-.12,1.95-.05,3.9-.11,5.85-.12,4.49-2.89,6.25-6.87,7.01-1.69.32-3.46.28-5.19.26-2.24-.02-4.48-.18-6.16-.25ZM45.12,65.63s-.05,0-.07,0c0,3.4,0,6.8,0,10.2,0,1.24.07,2.49.77,3.54,1.81,2.68,4.02,4.58,7.58,4.65,5.56.11,11.12.58,16.68.81,2.45.1,4.92.21,7.35-.3,3.35-.7,4.68-2.13,4.95-5.54.43-5.54.99-11.08.83-16.66-.1-3.54.1-7.09-.22-10.63-.24-2.66-1.73-4.9-5.05-4.78-.58.02-1.16-.07-1.73-.04-7.37.41-14.75.1-22.13.15-1.37,0-2.74-.28-4.11-.29-2.82-.03-3.72.63-4.55,3.33-.64,2.09-.79,4.26-.7,6.44.12,3.04.26,6.07.39,9.11Z"/>
        <path class="cls-2" d="M84.42,23.01c-.23,4.62-.45,9.25-.71,13.87-.04.71-.21,1.43-.41,2.12-.39,1.4-1.3,2.26-2.8,2.28-2.09.03-4.15.29-6.27-.07-1.91-.32-3.9-.3-5.85-.19-5.65.32-11.28-.13-16.91-.45-3.84-.22-5.83-2.07-6.57-5.9-.75-3.88-.34-7.8-.48-11.7-.09-2.46-.09-4.92-.26-7.37-.24-3.35.34-6.64.53-9.96.11-1.89,1.16-3.04,2.92-3.92,2.37-1.18,4.9-1.26,7.37-1.53,3.01-.33,6.06-.28,9.09.2,1.13.18,2.31.18,3.46.14,3.49-.12,6.94.27,10.4.59,2.55.24,4.23,1.61,5.16,4.02.9,2.33,1.24,4.71,1.27,7.21.04,3.55.17,7.09.03,10.64ZM45.81,23.25c0,1.16,0,2.31,0,3.47.02,2.38-.05,4.76.37,7.14.76,4.23,2.49,5.33,6.17,5.46,6.06.21,12.12.58,18.19.74,2.46.06,4.92.22,7.37.19,3.07-.03,3.93-.73,4.11-3.78.54-8.8,1.13-17.6.71-26.43-.09-1.85-.74-3.54-1.5-5.17-.54-1.16-1.57-1.9-2.88-2.06-1.5-.19-3.01-.36-4.53-.44-3.54-.19-7.08-.22-10.61-.51-2.38-.19-4.76-.49-7.14-.21-2.71.32-5.49.29-8.01,1.62-.95.5-1.69,1.11-1.8,2.25-.24,2.66-.76,5.34-.66,7.99.13,3.25.02,6.51.18,9.76Z"/>
        <path class="cls-2" d="M127.67,66.01c0,3.83.02,7.67,0,11.5-.03,4.85-1.21,6.25-5.98,7.23-.35.07-.72.21-1.07.19-4.06-.26-8.09.45-12.16.23-2.74-.15-5.5.06-8.25.03-2.6-.03-5.21-.11-7.81-.28-3.08-.2-3.84-.87-3.82-3.97.02-3.56-.43-7.08-.68-10.61-.37-5.21-.48-10.41-.26-15.62.04-.94.14-1.87.27-2.81.55-4.04,3.45-6.78,7.5-7.08.65-.05,1.31-.11,1.95-.04,6.22.66,12.45-.11,18.67.03,1.66.04,3.33,0,4.99.08,3.91.18,6.63,2.66,6.99,6.59.38,4.11.1,8.24-.12,12.36-.04.72-.11,1.44-.17,2.16-.02,0-.04,0-.06,0ZM107.32,83.63c3.63.37,7.96-.32,12.3-.16,1.38.05,2.74-.26,4.02-.78,1.26-.51,2.16-1.34,2.36-2.84.15-1.08.22-2.15.25-3.24.15-5.27-.1-10.55.38-15.83.27-2.94.33-5.93.07-8.89-.3-3.45-2.46-5.5-5.87-5.69-1.01-.06-2.02-.09-3.03-.11-6.94-.13-13.88.61-20.82-.01-.57-.05-1.16,0-1.73.07-3.24.39-5.58,2.72-5.89,5.94-.35,3.67-.5,7.36-.34,11.04.25,5.85.59,11.7.87,17.55.11,2.33.22,2.49,2.62,2.77.86.1,1.73.15,2.6.16,3.83.02,7.67,0,12.21,0Z"/>
        <path class="cls-2" d="M.32,64.34c0-4.27,0-8.54,0-12.81.01-4.11,2.29-6.71,6.37-7.02,3.16-.24,6.32-.53,9.53-.24,3.24.29,6.5-.33,9.76-.14,2.53.15,5.07.17,7.58.41,4.1.4,6.28,2.6,6.59,6.72.24,3.17.3,6.36.36,9.54.09,5.43.07,10.86.19,16.29.08,3.51-1.66,5.66-4.69,7.09-2.01.95-4.09,1.26-6.29,1.41-6.09.42-12.15-.08-18.22-.41-1.86-.1-3.72.14-5.6-.2-3.37-.61-5.35-2.56-5.64-6.11-.25-3.03-.32-6.07-.22-9.11.06-1.81.01-3.62.01-5.43h.27ZM39.26,64.73s-.07,0-.11,0c-.11-4.34-.14-8.68-.36-13.02-.19-3.79-1.93-5.53-5.66-5.85-2.38-.2-4.77-.19-7.15-.34-3.33-.22-6.66.41-9.97.1-3.13-.29-6.22,0-9.31.23-3.3.26-5.18,2.45-5.18,5.76,0,7.46.01,14.91.07,22.36.01,1.73.16,3.47.35,5.19.26,2.37,1.6,3.58,3.98,4.17,1.95.48,3.89.13,5.83.26,6.14.41,12.28.7,18.43.38,1.92-.1,3.7-.52,5.44-1.31,2.52-1.13,3.74-2.97,3.67-5.79-.1-4.05-.03-8.1-.03-12.16Z"/>
        <path class="cls-1" d="M45.12,65.63c-.13-3.04-.27-6.07-.39-9.11-.09-2.18.06-4.35.7-6.44.83-2.7,1.73-3.36,4.55-3.33,1.37.01,2.74.3,4.11.29,7.38-.05,14.76.26,22.13-.15.57-.03,1.16.06,1.73.04,3.31-.12,4.81,2.12,5.05,4.78.32,3.54.12,7.09.22,10.63.15,5.57-.4,11.11-.83,16.66-.27,3.42-1.6,4.85-4.95,5.54-2.44.51-4.9.4-7.35.3-5.56-.24-11.12-.7-16.68-.81-3.56-.07-5.77-1.96-7.58-4.65-.71-1.05-.78-2.3-.77-3.54.01-3.4,0-6.8,0-10.2.02,0,.05,0,.07,0ZM62.56,67.55c.14-.01.43-.02.71-.07,2.24-.36,2.97-1.67,2.04-3.72-.45-1-1.16-1.82-1.96-2.58-.53-.5-1.02-1.03-1.34-1.69-.32-.67-.08-1.26.37-1.8.51-.62,1.05-.26,1.56-.05.33.13.62.37.91.58.32.23.66.38.94.04.18-.22.12-.55-.03-.82-1.02-1.92-3.59-2.07-4.79-.29-.72,1.07-.78,2.15-.11,3.25.45.75,1.05,1.37,1.66,2,.65.68,1.27,1.4,1.53,2.33.16.56.03.94-.64,1.11-1.29.34-1.77.14-2.75-1.36-.23-.35-.34-.89-.91-.69-.59.21-.61.75-.51,1.28.29,1.45,1.6,2.46,3.3,2.47Z"/>
        <path class="cls-1" d="M45.81,23.25c-.16-3.25-.05-6.5-.18-9.76-.1-2.65.41-5.33.66-7.99.1-1.14.84-1.74,1.8-2.25,2.51-1.34,5.3-1.31,8.01-1.62,2.37-.28,4.76.02,7.14.21,3.53.28,7.07.32,10.61.51,1.51.08,3.02.26,4.53.44,1.31.16,2.34.9,2.88,2.06.76,1.63,1.41,3.32,1.5,5.17.42,8.83-.17,17.63-.71,26.43-.19,3.04-1.05,3.74-4.11,3.78-2.46.03-4.92-.13-7.37-.19-6.07-.16-12.12-.53-18.19-.74-3.68-.13-5.41-1.23-6.17-5.46-.43-2.37-.35-4.75-.37-7.14,0-1.16,0-2.31,0-3.47ZM63.45,16.16c.83.77.91,1.86,1.4,2.72.32.56.53,1.2.93,1.7.58.75,1.38.73,1.71-.09.87-2.14,2.15-4.12,2.62-6.41.1-.49.11-1,.11-1.5,0-.31-.2-.55-.52-.59-.31-.04-.59.11-.7.4-.17.47-.27.97-.4,1.46-.45,1.65-1.04,3.24-2.18,4.73-.9-1.91-1.75-3.66-2.25-5.56-.1-.39-.33-.68-.73-.68-.4,0-.65.29-.77.66-.13.41-.21.84-.32,1.26-.33,1.23-.83,2.38-1.6,3.58-.68-.77-.83-1.54-1.07-2.28-.42-1.31-.92-2.59-1.42-3.87-.09-.24-.32-.51-.67-.38-.33.12-.41.4-.32.7.82,2.69,1.34,5.49,2.71,7.99.52.95,1.25.9,1.71-.12.56-1.23.96-2.54,1.76-3.72Z"/>
        <path class="cls-1" d="M107.32,83.63c-4.55,0-8.38,0-12.21,0-.87,0-1.74-.06-2.6-.16-2.39-.27-2.5-.43-2.62-2.77-.28-5.85-.62-11.7-.87-17.55-.16-3.68,0-7.37.34-11.04.31-3.23,2.65-5.55,5.89-5.94.57-.07,1.16-.12,1.73-.07,6.94.62,13.88-.12,20.82.01,1.01.02,2.02.06,3.03.11,3.4.2,5.56,2.24,5.87,5.69.26,2.96.2,5.95-.07,8.89-.48,5.28-.23,10.55-.38,15.83-.03,1.09-.1,2.16-.25,3.24-.2,1.5-1.1,2.33-2.36,2.84-1.28.51-2.64.83-4.02.78-4.34-.16-8.67.52-12.3.16ZM104.32,63.59c-.07,1,.2,1.78-.05,2.58-.24.76.28,1.05.91,1.15,1.18.2,2.3-.1,3.4-.46,2.66-.87,3.6-2.46,3.42-5.73-.14-2.52-1.52-4.12-4.03-4.63-.64-.13-1.28-.21-1.93-.28-1.6-.18-1.61-.13-1.81,1.53-.24,2.03.43,4.03.09,5.84Z"/>
        <path class="cls-1" d="M39.26,64.73c0,4.05-.07,8.1.03,12.16.07,2.83-1.15,4.66-3.67,5.79-1.74.78-3.52,1.21-5.44,1.31-6.16.31-12.29.02-18.43-.38-1.94-.13-3.88.22-5.83-.26-2.39-.59-3.72-1.8-3.98-4.17-.19-1.72-.34-3.46-.35-5.19-.06-7.45-.06-14.91-.07-22.36,0-3.31,1.88-5.5,5.18-5.76,3.09-.24,6.18-.53,9.31-.23,3.31.31,6.64-.32,9.97-.1,2.38.16,4.77.14,7.15.34,3.73.32,5.47,2.06,5.66,5.85.22,4.33.25,8.68.36,13.02.04,0,.07,0,.11,0ZM23.47,66.28c-.07-.24-.19-.58-.27-.93-.35-1.46-1.23-2.68-1.82-4.03-.68-1.59-1.25-3.23-1.87-4.84-.18-.48-.38-.99-1.01-.94-.46.04-.76.37-.94.8-.11.27-.26.52-.34.8-.8,2.71-1.97,5.27-3.05,7.86-.08.2-.14.41-.23.61-.16.36-.23.72.21.9.42.17.67-.18.86-.47.26-.43.46-.9.7-1.34.13-.25.23-.58.57-.58,1.51,0,3.06-.14,4.53.13.85.16.9,1.37,1.21,2.16.05.13.12.26.2.38.23.31.52.51.92.32.28-.14.4-.39.33-.83Z"/>
        <path class="cls-2" d="M62.56,67.55c-1.7,0-3.01-1.03-3.3-2.47-.11-.52-.09-1.07.51-1.28.56-.2.68.34.91.69.98,1.5,1.46,1.7,2.75,1.36.66-.17.8-.55.64-1.11-.27-.93-.88-1.66-1.53-2.33-.61-.62-1.21-1.25-1.66-2-.66-1.11-.6-2.18.11-3.25,1.19-1.78,3.76-1.64,4.79.29.14.27.2.61.03.82-.28.35-.63.2-.94-.04-.29-.21-.58-.45-.91-.58-.51-.21-1.06-.57-1.56.05-.44.54-.69,1.13-.37,1.8.31.66.81,1.19,1.34,1.69.79.75,1.51,1.58,1.96,2.58.93,2.05.2,3.36-2.04,3.72-.28.05-.57.05-.71.07Z"/>
        <path class="cls-2" d="M63.45,16.16c-.79,1.17-1.2,2.48-1.76,3.72-.46,1.01-1.19,1.07-1.71.12-1.37-2.5-1.88-5.3-2.71-7.99-.09-.3-.01-.58.32-.7.36-.13.58.14.67.38.5,1.28,1,2.56,1.42,3.87.24.75.39,1.52,1.07,2.28.77-1.2,1.27-2.35,1.6-3.58.11-.42.2-.85.32-1.26.11-.37.37-.66.77-.66.4,0,.63.29.73.68.5,1.9,1.35,3.65,2.25,5.56,1.14-1.5,1.73-3.08,2.18-4.73.13-.49.23-.98.4-1.46.1-.29.39-.43.7-.4.32.04.52.28.52.59,0,.5,0,1.02-.11,1.5-.48,2.29-1.76,4.27-2.62,6.41-.33.83-1.13.84-1.71.09-.39-.5-.6-1.14-.93-1.7-.49-.87-.57-1.95-1.4-2.72Z"/>
        <path class="cls-2" d="M104.32,63.59c.34-1.81-.33-3.81-.09-5.84.2-1.66.21-1.71,1.81-1.53.64.07,1.29.15,1.93.28,2.51.52,3.89,2.11,4.03,4.63.18,3.27-.76,4.86-3.42,5.73-1.1.36-2.22.66-3.4.46-.63-.11-1.15-.4-.91-1.15.25-.8-.01-1.58.05-2.58ZM105.73,62.5c0,.98-.01,1.77,0,2.56,0,.37.1.68.56.77,1.17.24,3.47-.93,4-2.07,1.3-2.76-.28-5.69-3.27-6.09-1.28-.17-1.49,0-1.5,1.35-.02,1.22.34,2.43.21,3.47Z"/>
        <path class="cls-2" d="M23.47,66.28c.07.43-.05.69-.33.83-.39.19-.69,0-.92-.32-.08-.11-.15-.25-.2-.38-.31-.79-.37-2-1.21-2.16-1.47-.27-3.01-.13-4.53-.13-.34,0-.44.33-.57.58-.24.44-.43.91-.7,1.34-.18.3-.43.64-.86.47-.44-.18-.37-.54-.21-.9.09-.2.15-.41.23-.61,1.08-2.6,2.25-5.16,3.05-7.86.08-.27.23-.53.34-.8.18-.43.47-.76.94-.8.63-.05.83.47,1.01.94.62,1.61,1.19,3.25,1.87,4.84.58,1.35,1.46,2.57,1.82,4.03.09.35.2.69.27.93ZM18.45,58.36c-.69,1.44-1.4,2.78-1.68,4.35h3.4c-.22-1.65-.99-2.96-1.72-4.35Z"/>
        <path class="cls-3" d="M105.73,62.5c.13-1.04-.22-2.25-.21-3.47.02-1.36.22-1.52,1.5-1.35,3,.4,4.57,3.32,3.27,6.09-.54,1.14-2.83,2.31-4,2.07-.45-.09-.55-.4-.56-.77-.02-.79,0-1.58,0-2.56Z"/>
        <path class="cls-3" d="M18.45,58.36c.73,1.39,1.5,2.7,1.72,4.35h-3.4c.28-1.57.99-2.91,1.68-4.35Z"/>
      </g>
    </g>
  </g>
</svg>